{
	"asset":{
		"generator":"Khronos glTF Blender I/O v4.4.56",
		"version":"2.0"
	},
	"scene":0,
	"scenes":[
		{
			"name":"Scene",
			"nodes":[
				0
			]
		}
	],
	"nodes":[
		{
			"mesh":0,
			"name":"planet_ocean_iteration_2",
			"rotation":[
				-0.0012072839308530092,
				-0.47705674171447754,
				-0.8471700549125671,
				0.23391954600811005
			],
			"scale":[
				0.013540050014853477,
				0.013540052808821201,
				0.013540048152208328
			]
		}
	],
	"materials":[
		{
			"doubleSided":true,
			"name":"Material.010",
			"pbrMetallicRoughness":{
				"baseColorTexture":{
					"index":0
				},
				"metallicFactor":0
			}
		},
		{
			"doubleSided":true,
			"name":"Material.011",
			"pbrMetallicRoughness":{
				"baseColorTexture":{
					"index":1
				},
				"metallicFactor":0,
				"roughnessFactor":0.8727272748947144
			}
		},
		{
			"doubleSided":true,
			"name":"Material.012",
			"pbrMetallicRoughness":{
				"baseColorTexture":{
					"index":2
				},
				"metallicFactor":0
			}
		},
		{
			"doubleSided":true,
			"name":"Material.013",
			"pbrMetallicRoughness":{
				"baseColorTexture":{
					"index":3
				},
				"metallicFactor":0
			}
		},
		{
			"doubleSided":true,
			"name":"Material.014",
			"pbrMetallicRoughness":{
				"baseColorTexture":{
					"index":4
				},
				"metallicFactor":0,
				"roughnessFactor":0.5
			}
		},
		{
			"doubleSided":true,
			"name":"Material.015",
			"pbrMetallicRoughness":{
				"baseColorTexture":{
					"index":5
				},
				"metallicFactor":0,
				"roughnessFactor":0.7201834917068481
			}
		},
		{
			"doubleSided":true,
			"name":"Material.016",
			"pbrMetallicRoughness":{
				"baseColorTexture":{
					"index":6
				},
				"metallicFactor":0,
				"roughnessFactor":0.5
			}
		}
	],
	"meshes":[
		{
			"name":"B\u00e9zierCurve.003",
			"primitives":[
				{
					"attributes":{
						"POSITION":0,
						"NORMAL":1,
						"TEXCOORD_0":2,
						"COLOR_0":3,
						"COLOR_1":4
					},
					"indices":5,
					"material":0
				},
				{
					"attributes":{
						"POSITION":6,
						"NORMAL":7,
						"TEXCOORD_0":8,
						"COLOR_0":9,
						"COLOR_1":10
					},
					"indices":11,
					"material":1
				},
				{
					"attributes":{
						"POSITION":12,
						"NORMAL":13,
						"TEXCOORD_0":14,
						"COLOR_0":15,
						"COLOR_1":16
					},
					"indices":17,
					"material":2
				},
				{
					"attributes":{
						"POSITION":18,
						"NORMAL":19,
						"TEXCOORD_0":20,
						"COLOR_0":21,
						"COLOR_1":22
					},
					"indices":23,
					"material":3
				},
				{
					"attributes":{
						"POSITION":24,
						"NORMAL":25,
						"TEXCOORD_0":26,
						"COLOR_0":27,
						"COLOR_1":28
					},
					"indices":29,
					"material":4
				},
				{
					"attributes":{
						"POSITION":30,
						"NORMAL":31,
						"TEXCOORD_0":32,
						"COLOR_0":33,
						"COLOR_1":34
					},
					"indices":35,
					"material":5
				},
				{
					"attributes":{
						"POSITION":36,
						"NORMAL":37,
						"TEXCOORD_0":38,
						"COLOR_0":39,
						"COLOR_1":40
					},
					"indices":41,
					"material":6
				}
			]
		}
	],
	"textures":[
		{
			"sampler":0,
			"source":0
		},
		{
			"sampler":0,
			"source":1
		},
		{
			"sampler":0,
			"source":2
		},
		{
			"sampler":0,
			"source":3
		},
		{
			"sampler":0,
			"source":4
		},
		{
			"sampler":0,
			"source":5
		},
		{
			"sampler":0,
			"source":6
		}
	],
	"images":[
		{
			"mimeType":"image/png",
			"name":"planet_ocean_seaweed_mat",
			"uri":"planet_ocean_seaweed_mat.png"
		},
		{
			"mimeType":"image/png",
			"name":"planet_ocean_surface_land_mat",
			"uri":"planet_ocean_surface_land_mat.png"
		},
		{
			"mimeType":"image/png",
			"name":"planet_ocean_surface_water_mat",
			"uri":"planet_ocean_surface_water_mat.png"
		},
		{
			"mimeType":"image/png",
			"name":"planet_ocean_factory_pipeline_mat",
			"uri":"planet_ocean_factory_pipeline_mat.png"
		},
		{
			"mimeType":"image/png",
			"name":"planet_ocean_fish_2_mat",
			"uri":"planet_ocean_fish_2_mat.png"
		},
		{
			"mimeType":"image/png",
			"name":"planet_ocean_factory_mat",
			"uri":"planet_ocean_factory_mat.png"
		},
		{
			"mimeType":"image/png",
			"name":"planet_ocean_factory_pipes_mat",
			"uri":"planet_ocean_factory_pipes_mat.png"
		}
	],
	"accessors":[
		{
			"bufferView":0,
			"componentType":5126,
			"count":1770,
			"max":[
				-43.3070068359375,
				257.6822814941406,
				479.26483154296875
			],
			"min":[
				-451.287353515625,
				-132.46453857421875,
				-174.04678344726562
			],
			"type":"VEC3"
		},
		{
			"bufferView":1,
			"componentType":5126,
			"count":1770,
			"type":"VEC3"
		},
		{
			"bufferView":2,
			"componentType":5126,
			"count":1770,
			"type":"VEC2"
		},
		{
			"bufferView":3,
			"componentType":5126,
			"count":1770,
			"type":"VEC3"
		},
		{
			"bufferView":4,
			"componentType":5123,
			"count":1770,
			"normalized":true,
			"type":"VEC4"
		},
		{
			"bufferView":5,
			"componentType":5123,
			"count":6720,
			"type":"SCALAR"
		},
		{
			"bufferView":6,
			"componentType":5126,
			"count":9039,
			"max":[
				447.2230529785156,
				477.1747741699219,
				481.76641845703125
			],
			"min":[
				-466.12933349609375,
				-460.1597595214844,
				-463.0650939941406
			],
			"type":"VEC3"
		},
		{
			"bufferView":7,
			"componentType":5126,
			"count":9039,
			"type":"VEC3"
		},
		{
			"bufferView":8,
			"componentType":5126,
			"count":9039,
			"type":"VEC2"
		},
		{
			"bufferView":9,
			"componentType":5126,
			"count":9039,
			"type":"VEC3"
		},
		{
			"bufferView":10,
			"componentType":5123,
			"count":9039,
			"normalized":true,
			"type":"VEC4"
		},
		{
			"bufferView":11,
			"componentType":5123,
			"count":52143,
			"type":"SCALAR"
		},
		{
			"bufferView":12,
			"componentType":5126,
			"count":2721,
			"max":[
				477.8850402832031,
				479.9740295410156,
				478.80950927734375
			],
			"min":[
				-477.70220947265625,
				-475.5824279785156,
				-476.35626220703125
			],
			"type":"VEC3"
		},
		{
			"bufferView":13,
			"componentType":5126,
			"count":2721,
			"type":"VEC3"
		},
		{
			"bufferView":14,
			"componentType":5126,
			"count":2721,
			"type":"VEC2"
		},
		{
			"bufferView":15,
			"componentType":5126,
			"count":2721,
			"type":"VEC3"
		},
		{
			"bufferView":16,
			"componentType":5123,
			"count":2721,
			"normalized":true,
			"type":"VEC4"
		},
		{
			"bufferView":17,
			"componentType":5123,
			"count":15360,
			"type":"SCALAR"
		},
		{
			"bufferView":18,
			"componentType":5126,
			"count":657,
			"max":[
				270.2751770019531,
				395.1199645996094,
				419.57470703125
			],
			"min":[
				-23.828216552734375,
				-244.79415893554688,
				205.209228515625
			],
			"type":"VEC3"
		},
		{
			"bufferView":19,
			"componentType":5126,
			"count":657,
			"type":"VEC3"
		},
		{
			"bufferView":20,
			"componentType":5126,
			"count":657,
			"type":"VEC2"
		},
		{
			"bufferView":21,
			"componentType":5126,
			"count":657,
			"type":"VEC3"
		},
		{
			"bufferView":22,
			"componentType":5123,
			"count":657,
			"normalized":true,
			"type":"VEC4"
		},
		{
			"bufferView":23,
			"componentType":5123,
			"count":3360,
			"type":"SCALAR"
		},
		{
			"bufferView":24,
			"componentType":5126,
			"count":7233,
			"max":[
				328.2176208496094,
				274.6241149902344,
				145.14385986328125
			],
			"min":[
				-416.20953369140625,
				-370.9998779296875,
				-28.121673583984375
			],
			"type":"VEC3"
		},
		{
			"bufferView":25,
			"componentType":5126,
			"count":7233,
			"type":"VEC3"
		},
		{
			"bufferView":26,
			"componentType":5126,
			"count":7233,
			"type":"VEC2"
		},
		{
			"bufferView":27,
			"componentType":5126,
			"count":7233,
			"type":"VEC3"
		},
		{
			"bufferView":28,
			"componentType":5123,
			"count":7233,
			"normalized":true,
			"type":"VEC4"
		},
		{
			"bufferView":29,
			"componentType":5123,
			"count":31926,
			"type":"SCALAR"
		},
		{
			"bufferView":30,
			"componentType":5126,
			"count":1188,
			"max":[
				356.6815490722656,
				444.0154724121094,
				375.35986328125
			],
			"min":[
				134.53567504882812,
				225.49331665039062,
				195.84539794921875
			],
			"type":"VEC3"
		},
		{
			"bufferView":31,
			"componentType":5126,
			"count":1188,
			"type":"VEC3"
		},
		{
			"bufferView":32,
			"componentType":5126,
			"count":1188,
			"type":"VEC2"
		},
		{
			"bufferView":33,
			"componentType":5126,
			"count":1188,
			"type":"VEC3"
		},
		{
			"bufferView":34,
			"componentType":5123,
			"count":1188,
			"normalized":true,
			"type":"VEC4"
		},
		{
			"bufferView":35,
			"componentType":5123,
			"count":2790,
			"type":"SCALAR"
		},
		{
			"bufferView":36,
			"componentType":5126,
			"count":2955,
			"max":[
				289.6031799316406,
				405.0898742675781,
				377.65570068359375
			],
			"min":[
				165.23776245117188,
				267.7882995605469,
				278.2768859863281
			],
			"type":"VEC3"
		},
		{
			"bufferView":37,
			"componentType":5126,
			"count":2955,
			"type":"VEC3"
		},
		{
			"bufferView":38,
			"componentType":5126,
			"count":2955,
			"type":"VEC2"
		},
		{
			"bufferView":39,
			"componentType":5126,
			"count":2955,
			"type":"VEC3"
		},
		{
			"bufferView":40,
			"componentType":5123,
			"count":2955,
			"normalized":true,
			"type":"VEC4"
		},
		{
			"bufferView":41,
			"componentType":5123,
			"count":5928,
			"type":"SCALAR"
		}
	],
	"bufferViews":[
		{
			"buffer":0,
			"byteLength":21240,
			"byteOffset":0,
			"target":34962
		},
		{
			"buffer":0,
			"byteLength":21240,
			"byteOffset":21240,
			"target":34962
		},
		{
			"buffer":0,
			"byteLength":14160,
			"byteOffset":42480,
			"target":34962
		},
		{
			"buffer":0,
			"byteLength":21240,
			"byteOffset":56640,
			"target":34962
		},
		{
			"buffer":0,
			"byteLength":14160,
			"byteOffset":77880,
			"target":34962
		},
		{
			"buffer":0,
			"byteLength":13440,
			"byteOffset":92040,
			"target":34963
		},
		{
			"buffer":0,
			"byteLength":108468,
			"byteOffset":105480,
			"target":34962
		},
		{
			"buffer":0,
			"byteLength":108468,
			"byteOffset":213948,
			"target":34962
		},
		{
			"buffer":0,
			"byteLength":72312,
			"byteOffset":322416,
			"target":34962
		},
		{
			"buffer":0,
			"byteLength":108468,
			"byteOffset":394728,
			"target":34962
		},
		{
			"buffer":0,
			"byteLength":72312,
			"byteOffset":503196,
			"target":34962
		},
		{
			"buffer":0,
			"byteLength":104286,
			"byteOffset":575508,
			"target":34963
		},
		{
			"buffer":0,
			"byteLength":32652,
			"byteOffset":679796,
			"target":34962
		},
		{
			"buffer":0,
			"byteLength":32652,
			"byteOffset":712448,
			"target":34962
		},
		{
			"buffer":0,
			"byteLength":21768,
			"byteOffset":745100,
			"target":34962
		},
		{
			"buffer":0,
			"byteLength":32652,
			"byteOffset":766868,
			"target":34962
		},
		{
			"buffer":0,
			"byteLength":21768,
			"byteOffset":799520,
			"target":34962
		},
		{
			"buffer":0,
			"byteLength":30720,
			"byteOffset":821288,
			"target":34963
		},
		{
			"buffer":0,
			"byteLength":7884,
			"byteOffset":852008,
			"target":34962
		},
		{
			"buffer":0,
			"byteLength":7884,
			"byteOffset":859892,
			"target":34962
		},
		{
			"buffer":0,
			"byteLength":5256,
			"byteOffset":867776,
			"target":34962
		},
		{
			"buffer":0,
			"byteLength":7884,
			"byteOffset":873032,
			"target":34962
		},
		{
			"buffer":0,
			"byteLength":5256,
			"byteOffset":880916,
			"target":34962
		},
		{
			"buffer":0,
			"byteLength":6720,
			"byteOffset":886172,
			"target":34963
		},
		{
			"buffer":0,
			"byteLength":86796,
			"byteOffset":892892,
			"target":34962
		},
		{
			"buffer":0,
			"byteLength":86796,
			"byteOffset":979688,
			"target":34962
		},
		{
			"buffer":0,
			"byteLength":57864,
			"byteOffset":1066484,
			"target":34962
		},
		{
			"buffer":0,
			"byteLength":86796,
			"byteOffset":1124348,
			"target":34962
		},
		{
			"buffer":0,
			"byteLength":57864,
			"byteOffset":1211144,
			"target":34962
		},
		{
			"buffer":0,
			"byteLength":63852,
			"byteOffset":1269008,
			"target":34963
		},
		{
			"buffer":0,
			"byteLength":14256,
			"byteOffset":1332860,
			"target":34962
		},
		{
			"buffer":0,
			"byteLength":14256,
			"byteOffset":1347116,
			"target":34962
		},
		{
			"buffer":0,
			"byteLength":9504,
			"byteOffset":1361372,
			"target":34962
		},
		{
			"buffer":0,
			"byteLength":14256,
			"byteOffset":1370876,
			"target":34962
		},
		{
			"buffer":0,
			"byteLength":9504,
			"byteOffset":1385132,
			"target":34962
		},
		{
			"buffer":0,
			"byteLength":5580,
			"byteOffset":1394636,
			"target":34963
		},
		{
			"buffer":0,
			"byteLength":35460,
			"byteOffset":1400216,
			"target":34962
		},
		{
			"buffer":0,
			"byteLength":35460,
			"byteOffset":1435676,
			"target":34962
		},
		{
			"buffer":0,
			"byteLength":23640,
			"byteOffset":1471136,
			"target":34962
		},
		{
			"buffer":0,
			"byteLength":35460,
			"byteOffset":1494776,
			"target":34962
		},
		{
			"buffer":0,
			"byteLength":23640,
			"byteOffset":1530236,
			"target":34962
		},
		{
			"buffer":0,
			"byteLength":11856,
			"byteOffset":1553876,
			"target":34963
		}
	],
	"samplers":[
		{
			"magFilter":9729,
			"minFilter":9987
		}
	],
	"buffers":[
		{
			"byteLength":1565732,
			"uri":"planet_ocean_iteration_2.bin"
		}
	]
}
