{
	"asset":{
		"generator":"Khronos glTF Blender I/O v4.4.56",
		"version":"2.0"
	},
	"scene":0,
	"scenes":[
		{
			"name":"Scene",
			"nodes":[
				0
			]
		}
	],
	"nodes":[
		{
			"mesh":0,
			"name":"planet_ocean_iteration_0",
			"rotation":[
				-0.0012072839308530092,
				-0.47705674171447754,
				-0.8471700549125671,
				0.23391954600811005
			],
			"scale":[
				0.013540050014853477,
				0.013540052808821201,
				0.013540048152208328
			],
			"translation":[
				0.007037639617919922,
				-2.9802322387695312e-06,
				0.033345699310302734
			]
		}
	],
	"materials":[
		{
			"doubleSided":true,
			"name":"Material.009",
			"pbrMetallicRoughness":{
				"baseColorTexture":{
					"index":0
				},
				"metallicFactor":0
			}
		}
	],
	"meshes":[
		{
			"name":"B\u00e9zierCurve.002",
			"primitives":[
				{
					"attributes":{
						"POSITION":0,
						"NORMAL":1,
						"TEXCOORD_0":2,
						"COLOR_0":3,
						"COLOR_1":4
					},
					"indices":5,
					"material":0
				}
			]
		}
	],
	"textures":[
		{
			"sampler":0,
			"source":0
		}
	],
	"images":[
		{
			"mimeType":"image/png",
			"name":"planet_ocean_surface_water_mat",
			"uri":"planet_ocean_surface_water_mat.png"
		}
	],
	"accessors":[
		{
			"bufferView":0,
			"componentType":5126,
			"count":2721,
			"max":[
				497.9327392578125,
				497.9169616699219,
				497.71343994140625
			],
			"min":[
				-497.9336853027344,
				-497.917236328125,
				-497.71356201171875
			],
			"type":"VEC3"
		},
		{
			"bufferView":1,
			"componentType":5126,
			"count":2721,
			"type":"VEC3"
		},
		{
			"bufferView":2,
			"componentType":5126,
			"count":2721,
			"type":"VEC2"
		},
		{
			"bufferView":3,
			"componentType":5126,
			"count":2721,
			"type":"VEC3"
		},
		{
			"bufferView":4,
			"componentType":5123,
			"count":2721,
			"normalized":true,
			"type":"VEC4"
		},
		{
			"bufferView":5,
			"componentType":5123,
			"count":15360,
			"type":"SCALAR"
		}
	],
	"bufferViews":[
		{
			"buffer":0,
			"byteLength":32652,
			"byteOffset":0,
			"target":34962
		},
		{
			"buffer":0,
			"byteLength":32652,
			"byteOffset":32652,
			"target":34962
		},
		{
			"buffer":0,
			"byteLength":21768,
			"byteOffset":65304,
			"target":34962
		},
		{
			"buffer":0,
			"byteLength":32652,
			"byteOffset":87072,
			"target":34962
		},
		{
			"buffer":0,
			"byteLength":21768,
			"byteOffset":119724,
			"target":34962
		},
		{
			"buffer":0,
			"byteLength":30720,
			"byteOffset":141492,
			"target":34963
		}
	],
	"samplers":[
		{
			"magFilter":9729,
			"minFilter":9987
		}
	],
	"buffers":[
		{
			"byteLength":172212,
			"uri":"planet_ocean_iteration_0.bin"
		}
	]
}
