{
	"asset":{
		"generator":"Khronos glTF Blender I/O v4.4.56",
		"version":"2.0"
	},
	"scene":0,
	"scenes":[
		{
			"name":"Scene",
			"nodes":[
				0
			]
		}
	],
	"nodes":[
		{
			"mesh":0,
			"name":"planet_ocean_iteration_1",
			"rotation":[
				-0.0012072839308530092,
				-0.47705674171447754,
				-0.8471700549125671,
				0.23391954600811005
			],
			"scale":[
				0.013540050014853477,
				0.013540052808821201,
				0.013540048152208328
			]
		}
	],
	"materials":[
		{
			"doubleSided":true,
			"name":"Material.006",
			"pbrMetallicRoughness":{
				"baseColorTexture":{
					"index":0
				},
				"metallicFactor":0
			}
		},
		{
			"doubleSided":true,
			"name":"Material.007",
			"pbrMetallicRoughness":{
				"baseColorTexture":{
					"index":1
				},
				"metallicFactor":0,
				"roughnessFactor":0.7201834917068481
			}
		},
		{
			"doubleSided":true,
			"name":"Material.008",
			"pbrMetallicRoughness":{
				"baseColorTexture":{
					"index":2
				},
				"metallicFactor":0,
				"roughnessFactor":0.5
			}
		}
	],
	"meshes":[
		{
			"name":"B\u00e9zierCurve.001",
			"primitives":[
				{
					"attributes":{
						"POSITION":0,
						"NORMAL":1,
						"TEXCOORD_0":2,
						"COLOR_0":3,
						"COLOR_1":4
					},
					"indices":5,
					"material":0
				},
				{
					"attributes":{
						"POSITION":6,
						"NORMAL":7,
						"TEXCOORD_0":8,
						"COLOR_0":9,
						"COLOR_1":10
					},
					"indices":11,
					"material":1
				},
				{
					"attributes":{
						"POSITION":12,
						"NORMAL":13,
						"TEXCOORD_0":14,
						"COLOR_0":15,
						"COLOR_1":16
					},
					"indices":17,
					"material":2
				}
			]
		}
	],
	"textures":[
		{
			"sampler":0,
			"source":0
		},
		{
			"sampler":0,
			"source":1
		},
		{
			"sampler":0,
			"source":2
		}
	],
	"images":[
		{
			"mimeType":"image/png",
			"name":"planet_ocean_surface_water_mat",
			"uri":"planet_ocean_surface_water_mat.png"
		},
		{
			"mimeType":"image/png",
			"name":"planet_ocean_factory_mat",
			"uri":"planet_ocean_factory_mat.png"
		},
		{
			"mimeType":"image/png",
			"name":"planet_ocean_factory_pipes_mat",
			"uri":"planet_ocean_factory_pipes_mat.png"
		}
	],
	"accessors":[
		{
			"bufferView":0,
			"componentType":5126,
			"count":2721,
			"max":[
				498.0246276855469,
				500.1128845214844,
				498.94012451171875
			],
			"min":[
				-497.841796875,
				-495.7213134765625,
				-496.48687744140625
			],
			"type":"VEC3"
		},
		{
			"bufferView":1,
			"componentType":5126,
			"count":2721,
			"type":"VEC3"
		},
		{
			"bufferView":2,
			"componentType":5126,
			"count":2721,
			"type":"VEC2"
		},
		{
			"bufferView":3,
			"componentType":5126,
			"count":2721,
			"type":"VEC3"
		},
		{
			"bufferView":4,
			"componentType":5123,
			"count":2721,
			"normalized":true,
			"type":"VEC4"
		},
		{
			"bufferView":5,
			"componentType":5123,
			"count":15360,
			"type":"SCALAR"
		},
		{
			"bufferView":6,
			"componentType":5126,
			"count":1213,
			"max":[
				356.6815490722656,
				444.0154724121094,
				375.35986328125
			],
			"min":[
				134.53567504882812,
				225.49331665039062,
				195.84539794921875
			],
			"type":"VEC3"
		},
		{
			"bufferView":7,
			"componentType":5126,
			"count":1213,
			"type":"VEC3"
		},
		{
			"bufferView":8,
			"componentType":5126,
			"count":1213,
			"type":"VEC2"
		},
		{
			"bufferView":9,
			"componentType":5126,
			"count":1213,
			"type":"VEC3"
		},
		{
			"bufferView":10,
			"componentType":5123,
			"count":1213,
			"normalized":true,
			"type":"VEC4"
		},
		{
			"bufferView":11,
			"componentType":5123,
			"count":2790,
			"type":"SCALAR"
		},
		{
			"bufferView":12,
			"componentType":5126,
			"count":3126,
			"max":[
				289.6031799316406,
				405.0898742675781,
				377.65570068359375
			],
			"min":[
				165.23776245117188,
				267.7882995605469,
				278.2768859863281
			],
			"type":"VEC3"
		},
		{
			"bufferView":13,
			"componentType":5126,
			"count":3126,
			"type":"VEC3"
		},
		{
			"bufferView":14,
			"componentType":5126,
			"count":3126,
			"type":"VEC2"
		},
		{
			"bufferView":15,
			"componentType":5126,
			"count":3126,
			"type":"VEC3"
		},
		{
			"bufferView":16,
			"componentType":5123,
			"count":3126,
			"normalized":true,
			"type":"VEC4"
		},
		{
			"bufferView":17,
			"componentType":5123,
			"count":5928,
			"type":"SCALAR"
		}
	],
	"bufferViews":[
		{
			"buffer":0,
			"byteLength":32652,
			"byteOffset":0,
			"target":34962
		},
		{
			"buffer":0,
			"byteLength":32652,
			"byteOffset":32652,
			"target":34962
		},
		{
			"buffer":0,
			"byteLength":21768,
			"byteOffset":65304,
			"target":34962
		},
		{
			"buffer":0,
			"byteLength":32652,
			"byteOffset":87072,
			"target":34962
		},
		{
			"buffer":0,
			"byteLength":21768,
			"byteOffset":119724,
			"target":34962
		},
		{
			"buffer":0,
			"byteLength":30720,
			"byteOffset":141492,
			"target":34963
		},
		{
			"buffer":0,
			"byteLength":14556,
			"byteOffset":172212,
			"target":34962
		},
		{
			"buffer":0,
			"byteLength":14556,
			"byteOffset":186768,
			"target":34962
		},
		{
			"buffer":0,
			"byteLength":9704,
			"byteOffset":201324,
			"target":34962
		},
		{
			"buffer":0,
			"byteLength":14556,
			"byteOffset":211028,
			"target":34962
		},
		{
			"buffer":0,
			"byteLength":9704,
			"byteOffset":225584,
			"target":34962
		},
		{
			"buffer":0,
			"byteLength":5580,
			"byteOffset":235288,
			"target":34963
		},
		{
			"buffer":0,
			"byteLength":37512,
			"byteOffset":240868,
			"target":34962
		},
		{
			"buffer":0,
			"byteLength":37512,
			"byteOffset":278380,
			"target":34962
		},
		{
			"buffer":0,
			"byteLength":25008,
			"byteOffset":315892,
			"target":34962
		},
		{
			"buffer":0,
			"byteLength":37512,
			"byteOffset":340900,
			"target":34962
		},
		{
			"buffer":0,
			"byteLength":25008,
			"byteOffset":378412,
			"target":34962
		},
		{
			"buffer":0,
			"byteLength":11856,
			"byteOffset":403420,
			"target":34963
		}
	],
	"samplers":[
		{
			"magFilter":9729,
			"minFilter":9987
		}
	],
	"buffers":[
		{
			"byteLength":415276,
			"uri":"planet_ocean_iteration_1.bin"
		}
	]
}
