{
	"asset":{
		"generator":"Khronos glTF Blender I/O v4.4.56",
		"version":"2.0"
	},
	"scene":0,
	"scenes":[
		{
			"name":"Scene",
			"nodes":[
				0
			]
		}
	],
	"nodes":[
		{
			"mesh":0,
			"name":"planet_ocean_iteration_3",
			"rotation":[
				-0.0012072839308530092,
				-0.47705674171447754,
				-0.8471700549125671,
				0.23391954600811005
			],
			"scale":[
				0.013540050014853477,
				0.013540052808821201,
				0.013540048152208328
			]
		}
	],
	"materials":[
		{
			"doubleSided":true,
			"name":"Material.017",
			"pbrMetallicRoughness":{
				"baseColorTexture":{
					"index":0
				},
				"metallicFactor":0
			}
		},
		{
			"doubleSided":true,
			"name":"Material.018",
			"pbrMetallicRoughness":{
				"baseColorTexture":{
					"index":1
				},
				"metallicFactor":0,
				"roughnessFactor":0.8727272748947144
			}
		},
		{
			"doubleSided":true,
			"name":"Material.019",
			"pbrMetallicRoughness":{
				"baseColorTexture":{
					"index":2
				},
				"metallicFactor":0
			}
		},
		{
			"doubleSided":true,
			"name":"Material.020",
			"pbrMetallicRoughness":{
				"baseColorTexture":{
					"index":3
				},
				"metallicFactor":0
			}
		},
		{
			"doubleSided":true,
			"name":"Material.021",
			"pbrMetallicRoughness":{
				"baseColorTexture":{
					"index":4
				},
				"metallicFactor":0,
				"roughnessFactor":0.5
			}
		},
		{
			"doubleSided":true,
			"name":"Material.022",
			"pbrMetallicRoughness":{
				"baseColorTexture":{
					"index":5
				},
				"metallicFactor":0,
				"roughnessFactor":0.5
			}
		},
		{
			"doubleSided":true,
			"name":"Material.023",
			"pbrMetallicRoughness":{
				"baseColorTexture":{
					"index":6
				},
				"metallicFactor":0,
				"roughnessFactor":0.7201834917068481
			}
		},
		{
			"doubleSided":true,
			"name":"Material.024",
			"pbrMetallicRoughness":{
				"baseColorTexture":{
					"index":7
				},
				"metallicFactor":0,
				"roughnessFactor":0.5
			}
		}
	],
	"meshes":[
		{
			"name":"B\u00e9zierCurve.004",
			"primitives":[
				{
					"attributes":{
						"POSITION":0,
						"NORMAL":1,
						"TEXCOORD_0":2,
						"COLOR_0":3,
						"COLOR_1":4
					},
					"indices":5,
					"material":0
				},
				{
					"attributes":{
						"POSITION":6,
						"NORMAL":7,
						"TEXCOORD_0":8,
						"COLOR_0":9,
						"COLOR_1":10
					},
					"indices":11,
					"material":1
				},
				{
					"attributes":{
						"POSITION":12,
						"NORMAL":13,
						"TEXCOORD_0":14,
						"COLOR_0":15,
						"COLOR_1":16
					},
					"indices":17,
					"material":2
				},
				{
					"attributes":{
						"POSITION":18,
						"NORMAL":19,
						"TEXCOORD_0":20,
						"COLOR_0":21,
						"COLOR_1":22
					},
					"indices":23,
					"material":3
				},
				{
					"attributes":{
						"POSITION":24,
						"NORMAL":25,
						"TEXCOORD_0":26,
						"COLOR_0":27,
						"COLOR_1":28
					},
					"indices":29,
					"material":4
				},
				{
					"attributes":{
						"POSITION":30,
						"NORMAL":31,
						"TEXCOORD_0":32,
						"COLOR_0":33,
						"COLOR_1":34
					},
					"indices":35,
					"material":5
				},
				{
					"attributes":{
						"POSITION":36,
						"NORMAL":37,
						"TEXCOORD_0":38,
						"COLOR_0":39,
						"COLOR_1":40
					},
					"indices":41,
					"material":6
				},
				{
					"attributes":{
						"POSITION":42,
						"NORMAL":43,
						"TEXCOORD_0":44,
						"COLOR_0":45,
						"COLOR_1":46
					},
					"indices":47,
					"material":7
				}
			]
		}
	],
	"textures":[
		{
			"sampler":0,
			"source":0
		},
		{
			"sampler":0,
			"source":1
		},
		{
			"sampler":0,
			"source":2
		},
		{
			"sampler":0,
			"source":3
		},
		{
			"sampler":0,
			"source":4
		},
		{
			"sampler":0,
			"source":5
		},
		{
			"sampler":0,
			"source":6
		},
		{
			"sampler":0,
			"source":7
		}
	],
	"images":[
		{
			"mimeType":"image/png",
			"name":"planet_ocean_seaweed_mat",
			"uri":"planet_ocean_seaweed_mat.png"
		},
		{
			"mimeType":"image/png",
			"name":"planet_ocean_surface_land_mat",
			"uri":"planet_ocean_surface_land_mat.png"
		},
		{
			"mimeType":"image/png",
			"name":"planet_ocean_surface_water_mat",
			"uri":"planet_ocean_surface_water_mat.png"
		},
		{
			"mimeType":"image/png",
			"name":"planet_ocean_factory_pipeline_mat",
			"uri":"planet_ocean_factory_pipeline_mat.png"
		},
		{
			"mimeType":"image/png",
			"name":"planet_ocean_fish_1_mat",
			"uri":"planet_ocean_fish_1_mat.png"
		},
		{
			"mimeType":"image/png",
			"name":"planet_ocean_fish_2_mat",
			"uri":"planet_ocean_fish_2_mat.png"
		},
		{
			"mimeType":"image/png",
			"name":"planet_ocean_factory_mat",
			"uri":"planet_ocean_factory_mat.png"
		},
		{
			"mimeType":"image/png",
			"name":"planet_ocean_factory_pipes_mat",
			"uri":"planet_ocean_factory_pipes_mat.png"
		}
	],
	"accessors":[
		{
			"bufferView":0,
			"componentType":5126,
			"count":4308,
			"max":[
				393.4562072753906,
				257.6822814941406,
				479.4298095703125
			],
			"min":[
				-451.77288818359375,
				-455.24993896484375,
				-174.2849578857422
			],
			"type":"VEC3"
		},
		{
			"bufferView":1,
			"componentType":5126,
			"count":4308,
			"type":"VEC3"
		},
		{
			"bufferView":2,
			"componentType":5126,
			"count":4308,
			"type":"VEC2"
		},
		{
			"bufferView":3,
			"componentType":5126,
			"count":4308,
			"type":"VEC3"
		},
		{
			"bufferView":4,
			"componentType":5123,
			"count":4308,
			"normalized":true,
			"type":"VEC4"
		},
		{
			"bufferView":5,
			"componentType":5123,
			"count":16320,
			"type":"SCALAR"
		},
		{
			"bufferView":6,
			"componentType":5126,
			"count":10505,
			"max":[
				447.2230529785156,
				477.1747741699219,
				482.499267578125
			],
			"min":[
				-466.8046875,
				-460.1597595214844,
				-463.0650939941406
			],
			"type":"VEC3"
		},
		{
			"bufferView":7,
			"componentType":5126,
			"count":10505,
			"type":"VEC3"
		},
		{
			"bufferView":8,
			"componentType":5126,
			"count":10505,
			"type":"VEC2"
		},
		{
			"bufferView":9,
			"componentType":5126,
			"count":10505,
			"type":"VEC3"
		},
		{
			"bufferView":10,
			"componentType":5123,
			"count":10505,
			"normalized":true,
			"type":"VEC4"
		},
		{
			"bufferView":11,
			"componentType":5123,
			"count":61440,
			"type":"SCALAR"
		},
		{
			"bufferView":12,
			"componentType":5126,
			"count":2721,
			"max":[
				435.0641174316406,
				437.1545715332031,
				436.00750732421875
			],
			"min":[
				-434.8812255859375,
				-432.762939453125,
				-433.55419921875
			],
			"type":"VEC3"
		},
		{
			"bufferView":13,
			"componentType":5126,
			"count":2721,
			"type":"VEC3"
		},
		{
			"bufferView":14,
			"componentType":5126,
			"count":2721,
			"type":"VEC2"
		},
		{
			"bufferView":15,
			"componentType":5126,
			"count":2721,
			"type":"VEC3"
		},
		{
			"bufferView":16,
			"componentType":5123,
			"count":2721,
			"normalized":true,
			"type":"VEC4"
		},
		{
			"bufferView":17,
			"componentType":5123,
			"count":15360,
			"type":"SCALAR"
		},
		{
			"bufferView":18,
			"componentType":5126,
			"count":657,
			"max":[
				270.4450988769531,
				395.1199645996094,
				419.57470703125
			],
			"min":[
				-23.828216552734375,
				-244.79415893554688,
				205.209228515625
			],
			"type":"VEC3"
		},
		{
			"bufferView":19,
			"componentType":5126,
			"count":657,
			"type":"VEC3"
		},
		{
			"bufferView":20,
			"componentType":5126,
			"count":657,
			"type":"VEC2"
		},
		{
			"bufferView":21,
			"componentType":5126,
			"count":657,
			"type":"VEC3"
		},
		{
			"bufferView":22,
			"componentType":5123,
			"count":657,
			"normalized":true,
			"type":"VEC4"
		},
		{
			"bufferView":23,
			"componentType":5123,
			"count":3360,
			"type":"SCALAR"
		},
		{
			"bufferView":24,
			"componentType":5126,
			"count":5395,
			"max":[
				286.9546813964844,
				361.5829772949219,
				314.4388122558594
			],
			"min":[
				-447.4955749511719,
				-287.48651123046875,
				63.14476013183594
			],
			"type":"VEC3"
		},
		{
			"bufferView":25,
			"componentType":5126,
			"count":5395,
			"type":"VEC3"
		},
		{
			"bufferView":26,
			"componentType":5126,
			"count":5395,
			"type":"VEC2"
		},
		{
			"bufferView":27,
			"componentType":5126,
			"count":5395,
			"type":"VEC3"
		},
		{
			"bufferView":28,
			"componentType":5123,
			"count":5395,
			"normalized":true,
			"type":"VEC4"
		},
		{
			"bufferView":29,
			"componentType":5123,
			"count":25188,
			"type":"SCALAR"
		},
		{
			"bufferView":30,
			"componentType":5126,
			"count":10778,
			"max":[
				328.2176208496094,
				280.0633544921875,
				145.14385986328125
			],
			"min":[
				-413.8647766113281,
				-443.3825988769531,
				-9.996261596679688
			],
			"type":"VEC3"
		},
		{
			"bufferView":31,
			"componentType":5126,
			"count":10778,
			"type":"VEC3"
		},
		{
			"bufferView":32,
			"componentType":5126,
			"count":10778,
			"type":"VEC2"
		},
		{
			"bufferView":33,
			"componentType":5126,
			"count":10778,
			"type":"VEC3"
		},
		{
			"bufferView":34,
			"componentType":5123,
			"count":10778,
			"normalized":true,
			"type":"VEC4"
		},
		{
			"bufferView":35,
			"componentType":5123,
			"count":47556,
			"type":"SCALAR"
		},
		{
			"bufferView":36,
			"componentType":5126,
			"count":1164,
			"max":[
				356.6815490722656,
				444.0154724121094,
				375.35986328125
			],
			"min":[
				134.53567504882812,
				225.8773193359375,
				195.84539794921875
			],
			"type":"VEC3"
		},
		{
			"bufferView":37,
			"componentType":5126,
			"count":1164,
			"type":"VEC3"
		},
		{
			"bufferView":38,
			"componentType":5126,
			"count":1164,
			"type":"VEC2"
		},
		{
			"bufferView":39,
			"componentType":5126,
			"count":1164,
			"type":"VEC3"
		},
		{
			"bufferView":40,
			"componentType":5123,
			"count":1164,
			"normalized":true,
			"type":"VEC4"
		},
		{
			"bufferView":41,
			"componentType":5123,
			"count":2790,
			"type":"SCALAR"
		},
		{
			"bufferView":42,
			"componentType":5126,
			"count":2955,
			"max":[
				289.6031799316406,
				405.0898742675781,
				377.65570068359375
			],
			"min":[
				165.23776245117188,
				267.7882995605469,
				278.2768859863281
			],
			"type":"VEC3"
		},
		{
			"bufferView":43,
			"componentType":5126,
			"count":2955,
			"type":"VEC3"
		},
		{
			"bufferView":44,
			"componentType":5126,
			"count":2955,
			"type":"VEC2"
		},
		{
			"bufferView":45,
			"componentType":5126,
			"count":2955,
			"type":"VEC3"
		},
		{
			"bufferView":46,
			"componentType":5123,
			"count":2955,
			"normalized":true,
			"type":"VEC4"
		},
		{
			"bufferView":47,
			"componentType":5123,
			"count":5928,
			"type":"SCALAR"
		}
	],
	"bufferViews":[
		{
			"buffer":0,
			"byteLength":51696,
			"byteOffset":0,
			"target":34962
		},
		{
			"buffer":0,
			"byteLength":51696,
			"byteOffset":51696,
			"target":34962
		},
		{
			"buffer":0,
			"byteLength":34464,
			"byteOffset":103392,
			"target":34962
		},
		{
			"buffer":0,
			"byteLength":51696,
			"byteOffset":137856,
			"target":34962
		},
		{
			"buffer":0,
			"byteLength":34464,
			"byteOffset":189552,
			"target":34962
		},
		{
			"buffer":0,
			"byteLength":32640,
			"byteOffset":224016,
			"target":34963
		},
		{
			"buffer":0,
			"byteLength":126060,
			"byteOffset":256656,
			"target":34962
		},
		{
			"buffer":0,
			"byteLength":126060,
			"byteOffset":382716,
			"target":34962
		},
		{
			"buffer":0,
			"byteLength":84040,
			"byteOffset":508776,
			"target":34962
		},
		{
			"buffer":0,
			"byteLength":126060,
			"byteOffset":592816,
			"target":34962
		},
		{
			"buffer":0,
			"byteLength":84040,
			"byteOffset":718876,
			"target":34962
		},
		{
			"buffer":0,
			"byteLength":122880,
			"byteOffset":802916,
			"target":34963
		},
		{
			"buffer":0,
			"byteLength":32652,
			"byteOffset":925796,
			"target":34962
		},
		{
			"buffer":0,
			"byteLength":32652,
			"byteOffset":958448,
			"target":34962
		},
		{
			"buffer":0,
			"byteLength":21768,
			"byteOffset":991100,
			"target":34962
		},
		{
			"buffer":0,
			"byteLength":32652,
			"byteOffset":1012868,
			"target":34962
		},
		{
			"buffer":0,
			"byteLength":21768,
			"byteOffset":1045520,
			"target":34962
		},
		{
			"buffer":0,
			"byteLength":30720,
			"byteOffset":1067288,
			"target":34963
		},
		{
			"buffer":0,
			"byteLength":7884,
			"byteOffset":1098008,
			"target":34962
		},
		{
			"buffer":0,
			"byteLength":7884,
			"byteOffset":1105892,
			"target":34962
		},
		{
			"buffer":0,
			"byteLength":5256,
			"byteOffset":1113776,
			"target":34962
		},
		{
			"buffer":0,
			"byteLength":7884,
			"byteOffset":1119032,
			"target":34962
		},
		{
			"buffer":0,
			"byteLength":5256,
			"byteOffset":1126916,
			"target":34962
		},
		{
			"buffer":0,
			"byteLength":6720,
			"byteOffset":1132172,
			"target":34963
		},
		{
			"buffer":0,
			"byteLength":64740,
			"byteOffset":1138892,
			"target":34962
		},
		{
			"buffer":0,
			"byteLength":64740,
			"byteOffset":1203632,
			"target":34962
		},
		{
			"buffer":0,
			"byteLength":43160,
			"byteOffset":1268372,
			"target":34962
		},
		{
			"buffer":0,
			"byteLength":64740,
			"byteOffset":1311532,
			"target":34962
		},
		{
			"buffer":0,
			"byteLength":43160,
			"byteOffset":1376272,
			"target":34962
		},
		{
			"buffer":0,
			"byteLength":50376,
			"byteOffset":1419432,
			"target":34963
		},
		{
			"buffer":0,
			"byteLength":129336,
			"byteOffset":1469808,
			"target":34962
		},
		{
			"buffer":0,
			"byteLength":129336,
			"byteOffset":1599144,
			"target":34962
		},
		{
			"buffer":0,
			"byteLength":86224,
			"byteOffset":1728480,
			"target":34962
		},
		{
			"buffer":0,
			"byteLength":129336,
			"byteOffset":1814704,
			"target":34962
		},
		{
			"buffer":0,
			"byteLength":86224,
			"byteOffset":1944040,
			"target":34962
		},
		{
			"buffer":0,
			"byteLength":95112,
			"byteOffset":2030264,
			"target":34963
		},
		{
			"buffer":0,
			"byteLength":13968,
			"byteOffset":2125376,
			"target":34962
		},
		{
			"buffer":0,
			"byteLength":13968,
			"byteOffset":2139344,
			"target":34962
		},
		{
			"buffer":0,
			"byteLength":9312,
			"byteOffset":2153312,
			"target":34962
		},
		{
			"buffer":0,
			"byteLength":13968,
			"byteOffset":2162624,
			"target":34962
		},
		{
			"buffer":0,
			"byteLength":9312,
			"byteOffset":2176592,
			"target":34962
		},
		{
			"buffer":0,
			"byteLength":5580,
			"byteOffset":2185904,
			"target":34963
		},
		{
			"buffer":0,
			"byteLength":35460,
			"byteOffset":2191484,
			"target":34962
		},
		{
			"buffer":0,
			"byteLength":35460,
			"byteOffset":2226944,
			"target":34962
		},
		{
			"buffer":0,
			"byteLength":23640,
			"byteOffset":2262404,
			"target":34962
		},
		{
			"buffer":0,
			"byteLength":35460,
			"byteOffset":2286044,
			"target":34962
		},
		{
			"buffer":0,
			"byteLength":23640,
			"byteOffset":2321504,
			"target":34962
		},
		{
			"buffer":0,
			"byteLength":11856,
			"byteOffset":2345144,
			"target":34963
		}
	],
	"samplers":[
		{
			"magFilter":9729,
			"minFilter":9987
		}
	],
	"buffers":[
		{
			"byteLength":2357000,
			"uri":"planet_ocean_iteration_3.bin"
		}
	]
}
