{
	"asset":{
		"generator":"Khronos glTF Blender I/O v4.3.47",
		"version":"2.0"
	},
	"scene":0,
	"scenes":[
		{
			"name":"Scene",
			"nodes":[
				0
			]
		}
	],
	"nodes":[
		{
			"mesh":0,
			"name":"Icosphere.001",
			"rotation":[
				-0.14034096896648407,
				-0.5407407879829407,
				0.6354237198829651,
				0.5330483317375183
			],
			"scale":[
				0.009999999776482582,
				0.009999999776482582,
				0.009999999776482582
			],
			"translation":[
				-7.319338798522949,
				1.8839571475982666,
				0.3099793493747711
			]
		}
	],
	"materials":[
		{
			"doubleSided":true,
			"name":"planet_ant_factory_1_mat",
			"pbrMetallicRoughness":{
				"baseColorTexture":{
					"index":0
				},
				"metallicFactor":0
			}
		},
		{
			"doubleSided":true,
			"name":"Material.001",
			"pbrMetallicRoughness":{
				"baseColorTexture":{
					"index":1
				},
				"metallicFactor":0
			}
		},
		{
			"doubleSided":true,
			"name":"Material.003",
			"pbrMetallicRoughness":{
				"baseColorTexture":{
					"index":2
				},
				"metallicFactor":0
			}
		},
		{
			"doubleSided":true,
			"name":"Material.004",
			"pbrMetallicRoughness":{
				"baseColorTexture":{
					"index":3
				},
				"metallicFactor":0
			}
		},
		{
			"doubleSided":true,
			"name":"Material.006",
			"pbrMetallicRoughness":{
				"baseColorTexture":{
					"index":4
				},
				"metallicFactor":0
			}
		},
		{
			"doubleSided":true,
			"name":"planet_ant_factory_2_mat",
			"pbrMetallicRoughness":{
				"baseColorTexture":{
					"index":5
				},
				"metallicFactor":0
			}
		},
		{
			"doubleSided":true,
			"name":"planet_ant_factory_big_mat",
			"pbrMetallicRoughness":{
				"baseColorTexture":{
					"index":6
				},
				"metallicFactor":0
			}
		}
	],
	"meshes":[
		{
			"name":"Icosphere.506",
			"primitives":[
				{
					"attributes":{
						"POSITION":0,
						"NORMAL":1,
						"TEXCOORD_0":2,
						"COLOR_0":3,
						"COLOR_1":4,
						"COLOR_2":5
					},
					"indices":6,
					"material":0
				},
				{
					"attributes":{
						"POSITION":7,
						"NORMAL":8,
						"TEXCOORD_0":9,
						"COLOR_0":10,
						"COLOR_1":11,
						"COLOR_2":12
					},
					"indices":13,
					"material":1
				},
				{
					"attributes":{
						"POSITION":14,
						"NORMAL":15,
						"TEXCOORD_0":16,
						"COLOR_0":17,
						"COLOR_1":18,
						"COLOR_2":19
					},
					"indices":20,
					"material":2
				},
				{
					"attributes":{
						"POSITION":21,
						"NORMAL":22,
						"TEXCOORD_0":23,
						"COLOR_0":24,
						"COLOR_1":25,
						"COLOR_2":26
					},
					"indices":27,
					"material":3
				},
				{
					"attributes":{
						"POSITION":28,
						"NORMAL":29,
						"TEXCOORD_0":30,
						"COLOR_0":31,
						"COLOR_1":32,
						"COLOR_2":33
					},
					"indices":34,
					"material":4
				},
				{
					"attributes":{
						"POSITION":35,
						"NORMAL":36,
						"TEXCOORD_0":37,
						"COLOR_0":38,
						"COLOR_1":39,
						"COLOR_2":40
					},
					"indices":41,
					"material":5
				},
				{
					"attributes":{
						"POSITION":42,
						"NORMAL":43,
						"TEXCOORD_0":44,
						"COLOR_0":45,
						"COLOR_1":46,
						"COLOR_2":47
					},
					"indices":48,
					"material":6
				}
			]
		}
	],
	"textures":[
		{
			"sampler":0,
			"source":0
		},
		{
			"sampler":0,
			"source":1
		},
		{
			"sampler":0,
			"source":2
		},
		{
			"sampler":0,
			"source":3
		},
		{
			"sampler":0,
			"source":4
		},
		{
			"sampler":0,
			"source":5
		},
		{
			"sampler":0,
			"source":6
		}
	],
	"images":[
		{
			"mimeType":"image/png",
			"name":"planet_ant_factory_1_mat",
			"uri":"planet_ant_factory_1_mat.png"
		},
		{
			"mimeType":"image/png",
			"name":"planet_ant_surface_mat",
			"uri":"planet_ant_surface_mat.png"
		},
		{
			"mimeType":"image/png",
			"name":"ant_planet_house_2_mat",
			"uri":"ant_planet_house_2_mat.png"
		},
		{
			"mimeType":"image/png",
			"name":"planet_ant_house_3_mat",
			"uri":"planet_ant_house_3_mat.png"
		},
		{
			"mimeType":"image/png",
			"name":"planet_ant_tree_mat",
			"uri":"planet_ant_tree_mat.png"
		},
		{
			"mimeType":"image/png",
			"name":"planet_ant_factory_2_mat",
			"uri":"planet_ant_factory_2_mat.png"
		},
		{
			"mimeType":"image/png",
			"name":"planet_ant_factory_big_mat",
			"uri":"planet_ant_factory_big_mat.png"
		}
	],
	"accessors":[
		{
			"bufferView":0,
			"componentType":5126,
			"count":2721,
			"max":[
				41.35748291015625,
				54.882537841796875,
				57.270729064941406
			],
			"min":[
				-472.35235595703125,
				-1010.6469116210938,
				-1265.994873046875
			],
			"type":"VEC3"
		},
		{
			"bufferView":1,
			"componentType":5126,
			"count":2721,
			"type":"VEC3"
		},
		{
			"bufferView":2,
			"componentType":5126,
			"count":2721,
			"type":"VEC2"
		},
		{
			"bufferView":3,
			"componentType":5121,
			"count":2721,
			"normalized":true,
			"type":"VEC4"
		},
		{
			"bufferView":4,
			"componentType":5123,
			"count":2721,
			"normalized":true,
			"type":"VEC4"
		},
		{
			"bufferView":5,
			"componentType":5123,
			"count":2721,
			"normalized":true,
			"type":"VEC4"
		},
		{
			"bufferView":6,
			"componentType":5123,
			"count":5868,
			"type":"SCALAR"
		},
		{
			"bufferView":7,
			"componentType":5126,
			"count":9252,
			"max":[
				192.11395263671875,
				254.387939453125,
				181.30015563964844
			],
			"min":[
				-1085.6201171875,
				-1035.75341796875,
				-1091.8974609375
			],
			"type":"VEC3"
		},
		{
			"bufferView":8,
			"componentType":5126,
			"count":9252,
			"type":"VEC3"
		},
		{
			"bufferView":9,
			"componentType":5126,
			"count":9252,
			"type":"VEC2"
		},
		{
			"bufferView":10,
			"componentType":5121,
			"count":9252,
			"normalized":true,
			"type":"VEC4"
		},
		{
			"bufferView":11,
			"componentType":5123,
			"count":9252,
			"normalized":true,
			"type":"VEC4"
		},
		{
			"bufferView":12,
			"componentType":5123,
			"count":9252,
			"normalized":true,
			"type":"VEC4"
		},
		{
			"bufferView":13,
			"componentType":5123,
			"count":53427,
			"type":"SCALAR"
		},
		{
			"bufferView":14,
			"componentType":5126,
			"count":447,
			"max":[
				70.50390625,
				120.35443115234375,
				-432.5906066894531
			],
			"min":[
				-5.716583251953125,
				16.857166290283203,
				-541.6891479492188
			],
			"type":"VEC3"
		},
		{
			"bufferView":15,
			"componentType":5126,
			"count":447,
			"type":"VEC3"
		},
		{
			"bufferView":16,
			"componentType":5126,
			"count":447,
			"type":"VEC2"
		},
		{
			"bufferView":17,
			"componentType":5121,
			"count":447,
			"normalized":true,
			"type":"VEC4"
		},
		{
			"bufferView":18,
			"componentType":5123,
			"count":447,
			"normalized":true,
			"type":"VEC4"
		},
		{
			"bufferView":19,
			"componentType":5123,
			"count":447,
			"normalized":true,
			"type":"VEC4"
		},
		{
			"bufferView":20,
			"componentType":5123,
			"count":2208,
			"type":"SCALAR"
		},
		{
			"bufferView":21,
			"componentType":5126,
			"count":701,
			"max":[
				-63.2574462890625,
				215.21107482910156,
				-522.888671875
			],
			"min":[
				-898.6657104492188,
				-150.06687927246094,
				-900.0587768554688
			],
			"type":"VEC3"
		},
		{
			"bufferView":22,
			"componentType":5126,
			"count":701,
			"type":"VEC3"
		},
		{
			"bufferView":23,
			"componentType":5126,
			"count":701,
			"type":"VEC2"
		},
		{
			"bufferView":24,
			"componentType":5121,
			"count":701,
			"normalized":true,
			"type":"VEC4"
		},
		{
			"bufferView":25,
			"componentType":5123,
			"count":701,
			"normalized":true,
			"type":"VEC4"
		},
		{
			"bufferView":26,
			"componentType":5123,
			"count":701,
			"normalized":true,
			"type":"VEC4"
		},
		{
			"bufferView":27,
			"componentType":5123,
			"count":3147,
			"type":"SCALAR"
		},
		{
			"bufferView":28,
			"componentType":5126,
			"count":1654,
			"max":[
				229.7469482421875,
				327.744384765625,
				47.911651611328125
			],
			"min":[
				-407.2287902832031,
				-631.3882446289062,
				-618.7389526367188
			],
			"type":"VEC3"
		},
		{
			"bufferView":29,
			"componentType":5126,
			"count":1654,
			"type":"VEC3"
		},
		{
			"bufferView":30,
			"componentType":5126,
			"count":1654,
			"type":"VEC2"
		},
		{
			"bufferView":31,
			"componentType":5121,
			"count":1654,
			"normalized":true,
			"type":"VEC4"
		},
		{
			"bufferView":32,
			"componentType":5123,
			"count":1654,
			"normalized":true,
			"type":"VEC4"
		},
		{
			"bufferView":33,
			"componentType":5123,
			"count":1654,
			"normalized":true,
			"type":"VEC4"
		},
		{
			"bufferView":34,
			"componentType":5123,
			"count":7872,
			"type":"SCALAR"
		},
		{
			"bufferView":35,
			"componentType":5126,
			"count":2192,
			"max":[
				111.58734130859375,
				202.96826171875,
				5.482687473297119
			],
			"min":[
				-460.9844055175781,
				-754.2877197265625,
				-1116.635986328125
			],
			"type":"VEC3"
		},
		{
			"bufferView":36,
			"componentType":5126,
			"count":2192,
			"type":"VEC3"
		},
		{
			"bufferView":37,
			"componentType":5126,
			"count":2192,
			"type":"VEC2"
		},
		{
			"bufferView":38,
			"componentType":5121,
			"count":2192,
			"normalized":true,
			"type":"VEC4"
		},
		{
			"bufferView":39,
			"componentType":5123,
			"count":2192,
			"normalized":true,
			"type":"VEC4"
		},
		{
			"bufferView":40,
			"componentType":5123,
			"count":2192,
			"normalized":true,
			"type":"VEC4"
		},
		{
			"bufferView":41,
			"componentType":5123,
			"count":5454,
			"type":"SCALAR"
		},
		{
			"bufferView":42,
			"componentType":5126,
			"count":1892,
			"max":[
				-119.55657958984375,
				-936.50146484375,
				-284.0246276855469
			],
			"min":[
				-431.47381591796875,
				-1192.4654541015625,
				-600.4849853515625
			],
			"type":"VEC3"
		},
		{
			"bufferView":43,
			"componentType":5126,
			"count":1892,
			"type":"VEC3"
		},
		{
			"bufferView":44,
			"componentType":5126,
			"count":1892,
			"type":"VEC2"
		},
		{
			"bufferView":45,
			"componentType":5121,
			"count":1892,
			"normalized":true,
			"type":"VEC4"
		},
		{
			"bufferView":46,
			"componentType":5123,
			"count":1892,
			"normalized":true,
			"type":"VEC4"
		},
		{
			"bufferView":47,
			"componentType":5123,
			"count":1892,
			"normalized":true,
			"type":"VEC4"
		},
		{
			"bufferView":48,
			"componentType":5123,
			"count":4152,
			"type":"SCALAR"
		}
	],
	"bufferViews":[
		{
			"buffer":0,
			"byteLength":32652,
			"byteOffset":0,
			"target":34962
		},
		{
			"buffer":0,
			"byteLength":32652,
			"byteOffset":32652,
			"target":34962
		},
		{
			"buffer":0,
			"byteLength":21768,
			"byteOffset":65304,
			"target":34962
		},
		{
			"buffer":0,
			"byteLength":10884,
			"byteOffset":87072,
			"target":34962
		},
		{
			"buffer":0,
			"byteLength":21768,
			"byteOffset":97956,
			"target":34962
		},
		{
			"buffer":0,
			"byteLength":21768,
			"byteOffset":119724,
			"target":34962
		},
		{
			"buffer":0,
			"byteLength":11736,
			"byteOffset":141492,
			"target":34963
		},
		{
			"buffer":0,
			"byteLength":111024,
			"byteOffset":153228,
			"target":34962
		},
		{
			"buffer":0,
			"byteLength":111024,
			"byteOffset":264252,
			"target":34962
		},
		{
			"buffer":0,
			"byteLength":74016,
			"byteOffset":375276,
			"target":34962
		},
		{
			"buffer":0,
			"byteLength":37008,
			"byteOffset":449292,
			"target":34962
		},
		{
			"buffer":0,
			"byteLength":74016,
			"byteOffset":486300,
			"target":34962
		},
		{
			"buffer":0,
			"byteLength":74016,
			"byteOffset":560316,
			"target":34962
		},
		{
			"buffer":0,
			"byteLength":106854,
			"byteOffset":634332,
			"target":34963
		},
		{
			"buffer":0,
			"byteLength":5364,
			"byteOffset":741188,
			"target":34962
		},
		{
			"buffer":0,
			"byteLength":5364,
			"byteOffset":746552,
			"target":34962
		},
		{
			"buffer":0,
			"byteLength":3576,
			"byteOffset":751916,
			"target":34962
		},
		{
			"buffer":0,
			"byteLength":1788,
			"byteOffset":755492,
			"target":34962
		},
		{
			"buffer":0,
			"byteLength":3576,
			"byteOffset":757280,
			"target":34962
		},
		{
			"buffer":0,
			"byteLength":3576,
			"byteOffset":760856,
			"target":34962
		},
		{
			"buffer":0,
			"byteLength":4416,
			"byteOffset":764432,
			"target":34963
		},
		{
			"buffer":0,
			"byteLength":8412,
			"byteOffset":768848,
			"target":34962
		},
		{
			"buffer":0,
			"byteLength":8412,
			"byteOffset":777260,
			"target":34962
		},
		{
			"buffer":0,
			"byteLength":5608,
			"byteOffset":785672,
			"target":34962
		},
		{
			"buffer":0,
			"byteLength":2804,
			"byteOffset":791280,
			"target":34962
		},
		{
			"buffer":0,
			"byteLength":5608,
			"byteOffset":794084,
			"target":34962
		},
		{
			"buffer":0,
			"byteLength":5608,
			"byteOffset":799692,
			"target":34962
		},
		{
			"buffer":0,
			"byteLength":6294,
			"byteOffset":805300,
			"target":34963
		},
		{
			"buffer":0,
			"byteLength":19848,
			"byteOffset":811596,
			"target":34962
		},
		{
			"buffer":0,
			"byteLength":19848,
			"byteOffset":831444,
			"target":34962
		},
		{
			"buffer":0,
			"byteLength":13232,
			"byteOffset":851292,
			"target":34962
		},
		{
			"buffer":0,
			"byteLength":6616,
			"byteOffset":864524,
			"target":34962
		},
		{
			"buffer":0,
			"byteLength":13232,
			"byteOffset":871140,
			"target":34962
		},
		{
			"buffer":0,
			"byteLength":13232,
			"byteOffset":884372,
			"target":34962
		},
		{
			"buffer":0,
			"byteLength":15744,
			"byteOffset":897604,
			"target":34963
		},
		{
			"buffer":0,
			"byteLength":26304,
			"byteOffset":913348,
			"target":34962
		},
		{
			"buffer":0,
			"byteLength":26304,
			"byteOffset":939652,
			"target":34962
		},
		{
			"buffer":0,
			"byteLength":17536,
			"byteOffset":965956,
			"target":34962
		},
		{
			"buffer":0,
			"byteLength":8768,
			"byteOffset":983492,
			"target":34962
		},
		{
			"buffer":0,
			"byteLength":17536,
			"byteOffset":992260,
			"target":34962
		},
		{
			"buffer":0,
			"byteLength":17536,
			"byteOffset":1009796,
			"target":34962
		},
		{
			"buffer":0,
			"byteLength":10908,
			"byteOffset":1027332,
			"target":34963
		},
		{
			"buffer":0,
			"byteLength":22704,
			"byteOffset":1038240,
			"target":34962
		},
		{
			"buffer":0,
			"byteLength":22704,
			"byteOffset":1060944,
			"target":34962
		},
		{
			"buffer":0,
			"byteLength":15136,
			"byteOffset":1083648,
			"target":34962
		},
		{
			"buffer":0,
			"byteLength":7568,
			"byteOffset":1098784,
			"target":34962
		},
		{
			"buffer":0,
			"byteLength":15136,
			"byteOffset":1106352,
			"target":34962
		},
		{
			"buffer":0,
			"byteLength":15136,
			"byteOffset":1121488,
			"target":34962
		},
		{
			"buffer":0,
			"byteLength":8304,
			"byteOffset":1136624,
			"target":34963
		}
	],
	"samplers":[
		{
			"magFilter":9729,
			"minFilter":9987
		}
	],
	"buffers":[
		{
			"byteLength":1144928,
			"uri":"planet_ant_iteration_3.bin"
		}
	]
}
