{
	"asset":{
		"generator":"Khronos glTF Blender I/O v4.3.47",
		"version":"2.0"
	},
	"scene":0,
	"scenes":[
		{
			"name":"Scene",
			"nodes":[
				0
			]
		}
	],
	"nodes":[
		{
			"mesh":0,
			"name":"Cube.005",
			"rotation":[
				0.3981286585330963,
				-0.8922919631004333,
				0.09249919652938843,
				0.19170992076396942
			],
			"scale":[
				0.009636306203901768,
				0.009636303409934044,
				0.009636304341256618
			]
		}
	],
	"materials":[
		{
			"doubleSided":true,
			"name":"Material.003",
			"pbrMetallicRoughness":{
				"baseColorTexture":{
					"index":0
				},
				"metallicFactor":0
			}
		},
		{
			"doubleSided":true,
			"name":"Material.001",
			"pbrMetallicRoughness":{
				"baseColorTexture":{
					"index":1
				},
				"metallicFactor":0
			}
		},
		{
			"doubleSided":true,
			"name":"Material.005",
			"pbrMetallicRoughness":{
				"baseColorTexture":{
					"index":2
				},
				"metallicFactor":0,
				"roughnessFactor":0.5
			}
		},
		{
			"doubleSided":true,
			"name":"Material.006",
			"pbrMetallicRoughness":{
				"baseColorTexture":{
					"index":3
				},
				"metallicFactor":0
			}
		},
		{
			"doubleSided":true,
			"name":"Material.002",
			"pbrMetallicRoughness":{
				"baseColorTexture":{
					"index":4
				},
				"metallicFactor":0
			}
		},
		{
			"doubleSided":true,
			"name":"Material.004",
			"pbrMetallicRoughness":{
				"baseColorTexture":{
					"index":5
				},
				"metallicFactor":0
			}
		}
	],
	"meshes":[
		{
			"name":"Cube.051",
			"primitives":[
				{
					"attributes":{
						"POSITION":0,
						"NORMAL":1,
						"TEXCOORD_0":2
					},
					"indices":3,
					"material":0
				},
				{
					"attributes":{
						"POSITION":4,
						"NORMAL":5,
						"TEXCOORD_0":6
					},
					"indices":7,
					"material":1
				},
				{
					"attributes":{
						"POSITION":8,
						"NORMAL":9,
						"TEXCOORD_0":10
					},
					"indices":11,
					"material":2
				},
				{
					"attributes":{
						"POSITION":12,
						"NORMAL":13,
						"TEXCOORD_0":14
					},
					"indices":15,
					"material":3
				},
				{
					"attributes":{
						"POSITION":16,
						"NORMAL":17,
						"TEXCOORD_0":18
					},
					"indices":19,
					"material":4
				},
				{
					"attributes":{
						"POSITION":20,
						"NORMAL":21,
						"TEXCOORD_0":22
					},
					"indices":23,
					"material":5
				}
			]
		}
	],
	"textures":[
		{
			"sampler":0,
			"source":0
		},
		{
			"sampler":0,
			"source":1
		},
		{
			"sampler":0,
			"source":2
		},
		{
			"sampler":0,
			"source":3
		},
		{
			"sampler":0,
			"source":4
		},
		{
			"sampler":0,
			"source":5
		}
	],
	"images":[
		{
			"mimeType":"image/png",
			"name":"ant_planet_house_2_mat",
			"uri":"ant_planet_house_2_mat.png"
		},
		{
			"mimeType":"image/png",
			"name":"planet_ant_surface_mat_1",
			"uri":"planet_ant_surface_mat_1.png"
		},
		{
			"mimeType":"image/png",
			"name":"planet_ant_grass_mat",
			"uri":"planet_ant_grass_mat.png"
		},
		{
			"mimeType":"image/png",
			"name":"planet_ant_tree_mat",
			"uri":"planet_ant_tree_mat.png"
		},
		{
			"mimeType":"image/png",
			"name":"planet_ant_house_1_mat",
			"uri":"planet_ant_house_1_mat.png"
		},
		{
			"mimeType":"image/png",
			"name":"planet_ant_house_3_mat",
			"uri":"planet_ant_house_3_mat.png"
		}
	],
	"accessors":[
		{
			"bufferView":0,
			"componentType":5126,
			"count":3163,
			"max":[
				398.9453125,
				726.8693237304688,
				202.16754150390625
			],
			"min":[
				-214.3536834716797,
				-212.94129943847656,
				-762.2192993164062
			],
			"type":"VEC3"
		},
		{
			"bufferView":1,
			"componentType":5126,
			"count":3163,
			"type":"VEC3"
		},
		{
			"bufferView":2,
			"componentType":5126,
			"count":3163,
			"type":"VEC2"
		},
		{
			"bufferView":3,
			"componentType":5123,
			"count":16476,
			"type":"SCALAR"
		},
		{
			"bufferView":4,
			"componentType":5126,
			"count":9252,
			"max":[
				657.8982543945312,
				674.7178344726562,
				663.8195190429688
			],
			"min":[
				-655.3446655273438,
				-652.8798217773438,
				-670.9893798828125
			],
			"type":"VEC3"
		},
		{
			"bufferView":5,
			"componentType":5126,
			"count":9252,
			"type":"VEC3"
		},
		{
			"bufferView":6,
			"componentType":5126,
			"count":9252,
			"type":"VEC2"
		},
		{
			"bufferView":7,
			"componentType":5123,
			"count":53427,
			"type":"SCALAR"
		},
		{
			"bufferView":8,
			"componentType":5126,
			"count":12922,
			"max":[
				393.9818420410156,
				698.8587036132812,
				573.2042846679688
			],
			"min":[
				-683.505859375,
				-266.65478515625,
				-685.0670166015625
			],
			"type":"VEC3"
		},
		{
			"bufferView":9,
			"componentType":5126,
			"count":12922,
			"type":"VEC3"
		},
		{
			"bufferView":10,
			"componentType":5126,
			"count":12922,
			"type":"VEC2"
		},
		{
			"bufferView":11,
			"componentType":5123,
			"count":59379,
			"type":"SCALAR"
		},
		{
			"bufferView":12,
			"componentType":5126,
			"count":25272,
			"max":[
				343.441650390625,
				689.042724609375,
				591.0916137695312
			],
			"min":[
				-740.3806762695312,
				-289.96112060546875,
				-734.33740234375
			],
			"type":"VEC3"
		},
		{
			"bufferView":13,
			"componentType":5126,
			"count":25272,
			"type":"VEC3"
		},
		{
			"bufferView":14,
			"componentType":5126,
			"count":25272,
			"type":"VEC2"
		},
		{
			"bufferView":15,
			"componentType":5123,
			"count":116202,
			"type":"SCALAR"
		},
		{
			"bufferView":16,
			"componentType":5126,
			"count":2903,
			"max":[
				356.9557800292969,
				653.0579223632812,
				465.82366943359375
			],
			"min":[
				-646.9955444335938,
				-216.18563842773438,
				-708.6455078125
			],
			"type":"VEC3"
		},
		{
			"bufferView":17,
			"componentType":5126,
			"count":2903,
			"type":"VEC3"
		},
		{
			"bufferView":18,
			"componentType":5126,
			"count":2903,
			"type":"VEC2"
		},
		{
			"bufferView":19,
			"componentType":5123,
			"count":15525,
			"type":"SCALAR"
		},
		{
			"bufferView":20,
			"componentType":5126,
			"count":3541,
			"max":[
				-191.43777465820312,
				635.7898559570312,
				483.91131591796875
			],
			"min":[
				-758.3834838867188,
				-326.3930358886719,
				-161.39996337890625
			],
			"type":"VEC3"
		},
		{
			"bufferView":21,
			"componentType":5126,
			"count":3541,
			"type":"VEC3"
		},
		{
			"bufferView":22,
			"componentType":5126,
			"count":3541,
			"type":"VEC2"
		},
		{
			"bufferView":23,
			"componentType":5123,
			"count":17451,
			"type":"SCALAR"
		}
	],
	"bufferViews":[
		{
			"buffer":0,
			"byteLength":37956,
			"byteOffset":0,
			"target":34962
		},
		{
			"buffer":0,
			"byteLength":37956,
			"byteOffset":37956,
			"target":34962
		},
		{
			"buffer":0,
			"byteLength":25304,
			"byteOffset":75912,
			"target":34962
		},
		{
			"buffer":0,
			"byteLength":32952,
			"byteOffset":101216,
			"target":34963
		},
		{
			"buffer":0,
			"byteLength":111024,
			"byteOffset":134168,
			"target":34962
		},
		{
			"buffer":0,
			"byteLength":111024,
			"byteOffset":245192,
			"target":34962
		},
		{
			"buffer":0,
			"byteLength":74016,
			"byteOffset":356216,
			"target":34962
		},
		{
			"buffer":0,
			"byteLength":106854,
			"byteOffset":430232,
			"target":34963
		},
		{
			"buffer":0,
			"byteLength":155064,
			"byteOffset":537088,
			"target":34962
		},
		{
			"buffer":0,
			"byteLength":155064,
			"byteOffset":692152,
			"target":34962
		},
		{
			"buffer":0,
			"byteLength":103376,
			"byteOffset":847216,
			"target":34962
		},
		{
			"buffer":0,
			"byteLength":118758,
			"byteOffset":950592,
			"target":34963
		},
		{
			"buffer":0,
			"byteLength":303264,
			"byteOffset":1069352,
			"target":34962
		},
		{
			"buffer":0,
			"byteLength":303264,
			"byteOffset":1372616,
			"target":34962
		},
		{
			"buffer":0,
			"byteLength":202176,
			"byteOffset":1675880,
			"target":34962
		},
		{
			"buffer":0,
			"byteLength":232404,
			"byteOffset":1878056,
			"target":34963
		},
		{
			"buffer":0,
			"byteLength":34836,
			"byteOffset":2110460,
			"target":34962
		},
		{
			"buffer":0,
			"byteLength":34836,
			"byteOffset":2145296,
			"target":34962
		},
		{
			"buffer":0,
			"byteLength":23224,
			"byteOffset":2180132,
			"target":34962
		},
		{
			"buffer":0,
			"byteLength":31050,
			"byteOffset":2203356,
			"target":34963
		},
		{
			"buffer":0,
			"byteLength":42492,
			"byteOffset":2234408,
			"target":34962
		},
		{
			"buffer":0,
			"byteLength":42492,
			"byteOffset":2276900,
			"target":34962
		},
		{
			"buffer":0,
			"byteLength":28328,
			"byteOffset":2319392,
			"target":34962
		},
		{
			"buffer":0,
			"byteLength":34902,
			"byteOffset":2347720,
			"target":34963
		}
	],
	"samplers":[
		{
			"magFilter":9729,
			"minFilter":9987
		}
	],
	"buffers":[
		{
			"byteLength":2382624,
			"uri":"planet_ant_iteration_1.bin"
		}
	]
}
