{
	"asset":{
		"generator":"Khronos glTF Blender I/O v4.4.56",
		"version":"2.0"
	},
	"scene":0,
	"scenes":[
		{
			"name":"Scene",
			"nodes":[
				0
			]
		}
	],
	"nodes":[
		{
			"mesh":0,
			"name":"planet_crystal_factory.003",
			"rotation":[
				0.40687236189842224,
				-0.7133778929710388,
				-0.44665420055389404,
				0.3550310730934143
			],
			"scale":[
				0.001589581253938377,
				0.001589581253938377,
				0.001589581253938377
			]
		}
	],
	"materials":[
		{
			"doubleSided":true,
			"name":"Material.006",
			"pbrMetallicRoughness":{
				"baseColorTexture":{
					"index":0
				},
				"metallicFactor":0
			}
		},
		{
			"doubleSided":true,
			"name":"Material.004",
			"pbrMetallicRoughness":{
				"baseColorTexture":{
					"index":1
				},
				"metallicFactor":0
			}
		},
		{
			"doubleSided":true,
			"name":"Material.003",
			"pbrMetallicRoughness":{
				"baseColorTexture":{
					"index":2
				},
				"metallicFactor":0,
				"roughnessFactor":0.5
			}
		},
		{
			"doubleSided":true,
			"name":"Material.005",
			"pbrMetallicRoughness":{
				"baseColorTexture":{
					"index":3
				},
				"metallicFactor":0,
				"roughnessFactor":0.5
			}
		},
		{
			"doubleSided":true,
			"name":"Material",
			"pbrMetallicRoughness":{
				"baseColorTexture":{
					"index":4
				},
				"metallicFactor":0,
				"roughnessFactor":0.531818151473999
			}
		},
		{
			"doubleSided":true,
			"name":"Material.008",
			"pbrMetallicRoughness":{
				"baseColorTexture":{
					"index":5
				},
				"metallicFactor":0
			}
		}
	],
	"meshes":[
		{
			"name":"Mesh.006",
			"primitives":[
				{
					"attributes":{
						"POSITION":0,
						"NORMAL":1,
						"TEXCOORD_0":2,
						"TEXCOORD_1":3,
						"TEXCOORD_2":4,
						"COLOR_0":5,
						"COLOR_1":6,
						"COLOR_2":7
					},
					"indices":8,
					"material":0
				},
				{
					"attributes":{
						"POSITION":9,
						"NORMAL":10,
						"TEXCOORD_0":11,
						"TEXCOORD_1":12,
						"TEXCOORD_2":13,
						"COLOR_0":14,
						"COLOR_1":15,
						"COLOR_2":16
					},
					"indices":17,
					"material":1
				},
				{
					"attributes":{
						"POSITION":18,
						"NORMAL":19,
						"TEXCOORD_0":20,
						"TEXCOORD_1":21,
						"TEXCOORD_2":22,
						"COLOR_0":23,
						"COLOR_1":24,
						"COLOR_2":25
					},
					"indices":26,
					"material":2
				},
				{
					"attributes":{
						"POSITION":27,
						"NORMAL":28,
						"TEXCOORD_0":29,
						"TEXCOORD_1":30,
						"TEXCOORD_2":31,
						"COLOR_0":32,
						"COLOR_1":33,
						"COLOR_2":34
					},
					"indices":35,
					"material":3
				},
				{
					"attributes":{
						"POSITION":36,
						"NORMAL":37,
						"TEXCOORD_0":38,
						"TEXCOORD_1":39,
						"TEXCOORD_2":40,
						"COLOR_0":41,
						"COLOR_1":42,
						"COLOR_2":43
					},
					"indices":44,
					"material":4
				},
				{
					"attributes":{
						"POSITION":45,
						"NORMAL":46,
						"TEXCOORD_0":47,
						"TEXCOORD_1":48,
						"TEXCOORD_2":49,
						"COLOR_0":50,
						"COLOR_1":51,
						"COLOR_2":52
					},
					"indices":53,
					"material":5
				}
			]
		}
	],
	"textures":[
		{
			"sampler":0,
			"source":0
		},
		{
			"sampler":0,
			"source":1
		},
		{
			"sampler":0,
			"source":2
		},
		{
			"sampler":0,
			"source":3
		},
		{
			"sampler":0,
			"source":4
		},
		{
			"sampler":0,
			"source":0
		}
	],
	"images":[
		{
			"mimeType":"image/png",
			"name":"Untitled",
			"uri":"Untitled.png"
		},
		{
			"mimeType":"image/png",
			"name":"Untitled",
			"uri":"Untitled-1.png"
		},
		{
			"mimeType":"image/png",
			"name":"Untitled-1",
			"uri":"Untitled-2.png"
		},
		{
			"mimeType":"image/png",
			"name":"Untitled-2",
			"uri":"Untitled-3.png"
		},
		{
			"mimeType":"image/png",
			"name":"planet_crystal_destroyed_surface_ Base Color",
			"uri":"planet_crystal_destroyed_surface_%20Base%20Color.png"
		}
	],
	"accessors":[
		{
			"bufferView":0,
			"componentType":5126,
			"count":7787,
			"max":[
				1412.40234375,
				3453.708984375,
				743.96240234375
			],
			"min":[
				-4419.123046875,
				-1105.1357421875,
				-1172.4739990234375
			],
			"type":"VEC3"
		},
		{
			"bufferView":1,
			"componentType":5126,
			"count":7787,
			"type":"VEC3"
		},
		{
			"bufferView":2,
			"componentType":5126,
			"count":7787,
			"type":"VEC2"
		},
		{
			"bufferView":3,
			"componentType":5126,
			"count":7787,
			"type":"VEC2"
		},
		{
			"bufferView":4,
			"componentType":5126,
			"count":7787,
			"type":"VEC2"
		},
		{
			"bufferView":5,
			"componentType":5121,
			"count":7787,
			"normalized":true,
			"type":"VEC4"
		},
		{
			"bufferView":6,
			"componentType":5123,
			"count":7787,
			"normalized":true,
			"type":"VEC4"
		},
		{
			"bufferView":7,
			"componentType":5123,
			"count":7787,
			"normalized":true,
			"type":"VEC4"
		},
		{
			"bufferView":8,
			"componentType":5123,
			"count":15384,
			"type":"SCALAR"
		},
		{
			"bufferView":9,
			"componentType":5126,
			"count":5977,
			"max":[
				2551.992431640625,
				1373.853515625,
				4348.7412109375
			],
			"min":[
				-131.97283935546875,
				-1273.185546875,
				2223.04052734375
			],
			"type":"VEC3"
		},
		{
			"bufferView":10,
			"componentType":5126,
			"count":5977,
			"type":"VEC3"
		},
		{
			"bufferView":11,
			"componentType":5126,
			"count":5977,
			"type":"VEC2"
		},
		{
			"bufferView":12,
			"componentType":5126,
			"count":5977,
			"type":"VEC2"
		},
		{
			"bufferView":13,
			"componentType":5126,
			"count":5977,
			"type":"VEC2"
		},
		{
			"bufferView":14,
			"componentType":5121,
			"count":5977,
			"normalized":true,
			"type":"VEC4"
		},
		{
			"bufferView":15,
			"componentType":5123,
			"count":5977,
			"normalized":true,
			"type":"VEC4"
		},
		{
			"bufferView":16,
			"componentType":5123,
			"count":5977,
			"normalized":true,
			"type":"VEC4"
		},
		{
			"bufferView":17,
			"componentType":5123,
			"count":9624,
			"type":"SCALAR"
		},
		{
			"bufferView":18,
			"componentType":5126,
			"count":818,
			"max":[
				2217.777099609375,
				2003.20263671875,
				3920.725341796875
			],
			"min":[
				262.64239501953125,
				-1094.377197265625,
				2630.444091796875
			],
			"type":"VEC3"
		},
		{
			"bufferView":19,
			"componentType":5126,
			"count":818,
			"type":"VEC3"
		},
		{
			"bufferView":20,
			"componentType":5126,
			"count":818,
			"type":"VEC2"
		},
		{
			"bufferView":21,
			"componentType":5126,
			"count":818,
			"type":"VEC2"
		},
		{
			"bufferView":22,
			"componentType":5126,
			"count":818,
			"type":"VEC2"
		},
		{
			"bufferView":23,
			"componentType":5121,
			"count":818,
			"normalized":true,
			"type":"VEC4"
		},
		{
			"bufferView":24,
			"componentType":5123,
			"count":818,
			"normalized":true,
			"type":"VEC4"
		},
		{
			"bufferView":25,
			"componentType":5123,
			"count":818,
			"normalized":true,
			"type":"VEC4"
		},
		{
			"bufferView":26,
			"componentType":5123,
			"count":1224,
			"type":"SCALAR"
		},
		{
			"bufferView":27,
			"componentType":5126,
			"count":2576,
			"max":[
				2394.068115234375,
				2187.637451171875,
				3946.279541015625
			],
			"min":[
				1288.74853515625,
				1350.1256103515625,
				2287.917236328125
			],
			"type":"VEC3"
		},
		{
			"bufferView":28,
			"componentType":5126,
			"count":2576,
			"type":"VEC3"
		},
		{
			"bufferView":29,
			"componentType":5126,
			"count":2576,
			"type":"VEC2"
		},
		{
			"bufferView":30,
			"componentType":5126,
			"count":2576,
			"type":"VEC2"
		},
		{
			"bufferView":31,
			"componentType":5126,
			"count":2576,
			"type":"VEC2"
		},
		{
			"bufferView":32,
			"componentType":5121,
			"count":2576,
			"normalized":true,
			"type":"VEC4"
		},
		{
			"bufferView":33,
			"componentType":5123,
			"count":2576,
			"normalized":true,
			"type":"VEC4"
		},
		{
			"bufferView":34,
			"componentType":5123,
			"count":2576,
			"normalized":true,
			"type":"VEC4"
		},
		{
			"bufferView":35,
			"componentType":5123,
			"count":5547,
			"type":"SCALAR"
		},
		{
			"bufferView":36,
			"componentType":5126,
			"count":3161,
			"max":[
				3385.4853515625,
				2618.91943359375,
				3434.688232421875
			],
			"min":[
				-3473.296630859375,
				-3391.9951171875,
				-3396.954345703125
			],
			"type":"VEC3"
		},
		{
			"bufferView":37,
			"componentType":5126,
			"count":3161,
			"type":"VEC3"
		},
		{
			"bufferView":38,
			"componentType":5126,
			"count":3161,
			"type":"VEC2"
		},
		{
			"bufferView":39,
			"componentType":5126,
			"count":3161,
			"type":"VEC2"
		},
		{
			"bufferView":40,
			"componentType":5126,
			"count":3161,
			"type":"VEC2"
		},
		{
			"bufferView":41,
			"componentType":5121,
			"count":3161,
			"normalized":true,
			"type":"VEC4"
		},
		{
			"bufferView":42,
			"componentType":5123,
			"count":3161,
			"normalized":true,
			"type":"VEC4"
		},
		{
			"bufferView":43,
			"componentType":5123,
			"count":3161,
			"normalized":true,
			"type":"VEC4"
		},
		{
			"bufferView":44,
			"componentType":5123,
			"count":9198,
			"type":"SCALAR"
		},
		{
			"bufferView":45,
			"componentType":5126,
			"count":4348,
			"max":[
				-797.0755004882812,
				-1742.70263671875,
				3203.7744140625
			],
			"min":[
				-2061.199951171875,
				-3513.90673828125,
				1388.8992919921875
			],
			"type":"VEC3"
		},
		{
			"bufferView":46,
			"componentType":5126,
			"count":4348,
			"type":"VEC3"
		},
		{
			"bufferView":47,
			"componentType":5126,
			"count":4348,
			"type":"VEC2"
		},
		{
			"bufferView":48,
			"componentType":5126,
			"count":4348,
			"type":"VEC2"
		},
		{
			"bufferView":49,
			"componentType":5126,
			"count":4348,
			"type":"VEC2"
		},
		{
			"bufferView":50,
			"componentType":5121,
			"count":4348,
			"normalized":true,
			"type":"VEC4"
		},
		{
			"bufferView":51,
			"componentType":5123,
			"count":4348,
			"normalized":true,
			"type":"VEC4"
		},
		{
			"bufferView":52,
			"componentType":5123,
			"count":4348,
			"normalized":true,
			"type":"VEC4"
		},
		{
			"bufferView":53,
			"componentType":5123,
			"count":7692,
			"type":"SCALAR"
		}
	],
	"bufferViews":[
		{
			"buffer":0,
			"byteLength":93444,
			"byteOffset":0,
			"target":34962
		},
		{
			"buffer":0,
			"byteLength":93444,
			"byteOffset":93444,
			"target":34962
		},
		{
			"buffer":0,
			"byteLength":62296,
			"byteOffset":186888,
			"target":34962
		},
		{
			"buffer":0,
			"byteLength":62296,
			"byteOffset":249184,
			"target":34962
		},
		{
			"buffer":0,
			"byteLength":62296,
			"byteOffset":311480,
			"target":34962
		},
		{
			"buffer":0,
			"byteLength":31148,
			"byteOffset":373776,
			"target":34962
		},
		{
			"buffer":0,
			"byteLength":62296,
			"byteOffset":404924,
			"target":34962
		},
		{
			"buffer":0,
			"byteLength":62296,
			"byteOffset":467220,
			"target":34962
		},
		{
			"buffer":0,
			"byteLength":30768,
			"byteOffset":529516,
			"target":34963
		},
		{
			"buffer":0,
			"byteLength":71724,
			"byteOffset":560284,
			"target":34962
		},
		{
			"buffer":0,
			"byteLength":71724,
			"byteOffset":632008,
			"target":34962
		},
		{
			"buffer":0,
			"byteLength":47816,
			"byteOffset":703732,
			"target":34962
		},
		{
			"buffer":0,
			"byteLength":47816,
			"byteOffset":751548,
			"target":34962
		},
		{
			"buffer":0,
			"byteLength":47816,
			"byteOffset":799364,
			"target":34962
		},
		{
			"buffer":0,
			"byteLength":23908,
			"byteOffset":847180,
			"target":34962
		},
		{
			"buffer":0,
			"byteLength":47816,
			"byteOffset":871088,
			"target":34962
		},
		{
			"buffer":0,
			"byteLength":47816,
			"byteOffset":918904,
			"target":34962
		},
		{
			"buffer":0,
			"byteLength":19248,
			"byteOffset":966720,
			"target":34963
		},
		{
			"buffer":0,
			"byteLength":9816,
			"byteOffset":985968,
			"target":34962
		},
		{
			"buffer":0,
			"byteLength":9816,
			"byteOffset":995784,
			"target":34962
		},
		{
			"buffer":0,
			"byteLength":6544,
			"byteOffset":1005600,
			"target":34962
		},
		{
			"buffer":0,
			"byteLength":6544,
			"byteOffset":1012144,
			"target":34962
		},
		{
			"buffer":0,
			"byteLength":6544,
			"byteOffset":1018688,
			"target":34962
		},
		{
			"buffer":0,
			"byteLength":3272,
			"byteOffset":1025232,
			"target":34962
		},
		{
			"buffer":0,
			"byteLength":6544,
			"byteOffset":1028504,
			"target":34962
		},
		{
			"buffer":0,
			"byteLength":6544,
			"byteOffset":1035048,
			"target":34962
		},
		{
			"buffer":0,
			"byteLength":2448,
			"byteOffset":1041592,
			"target":34963
		},
		{
			"buffer":0,
			"byteLength":30912,
			"byteOffset":1044040,
			"target":34962
		},
		{
			"buffer":0,
			"byteLength":30912,
			"byteOffset":1074952,
			"target":34962
		},
		{
			"buffer":0,
			"byteLength":20608,
			"byteOffset":1105864,
			"target":34962
		},
		{
			"buffer":0,
			"byteLength":20608,
			"byteOffset":1126472,
			"target":34962
		},
		{
			"buffer":0,
			"byteLength":20608,
			"byteOffset":1147080,
			"target":34962
		},
		{
			"buffer":0,
			"byteLength":10304,
			"byteOffset":1167688,
			"target":34962
		},
		{
			"buffer":0,
			"byteLength":20608,
			"byteOffset":1177992,
			"target":34962
		},
		{
			"buffer":0,
			"byteLength":20608,
			"byteOffset":1198600,
			"target":34962
		},
		{
			"buffer":0,
			"byteLength":11094,
			"byteOffset":1219208,
			"target":34963
		},
		{
			"buffer":0,
			"byteLength":37932,
			"byteOffset":1230304,
			"target":34962
		},
		{
			"buffer":0,
			"byteLength":37932,
			"byteOffset":1268236,
			"target":34962
		},
		{
			"buffer":0,
			"byteLength":25288,
			"byteOffset":1306168,
			"target":34962
		},
		{
			"buffer":0,
			"byteLength":25288,
			"byteOffset":1331456,
			"target":34962
		},
		{
			"buffer":0,
			"byteLength":25288,
			"byteOffset":1356744,
			"target":34962
		},
		{
			"buffer":0,
			"byteLength":12644,
			"byteOffset":1382032,
			"target":34962
		},
		{
			"buffer":0,
			"byteLength":25288,
			"byteOffset":1394676,
			"target":34962
		},
		{
			"buffer":0,
			"byteLength":25288,
			"byteOffset":1419964,
			"target":34962
		},
		{
			"buffer":0,
			"byteLength":18396,
			"byteOffset":1445252,
			"target":34963
		},
		{
			"buffer":0,
			"byteLength":52176,
			"byteOffset":1463648,
			"target":34962
		},
		{
			"buffer":0,
			"byteLength":52176,
			"byteOffset":1515824,
			"target":34962
		},
		{
			"buffer":0,
			"byteLength":34784,
			"byteOffset":1568000,
			"target":34962
		},
		{
			"buffer":0,
			"byteLength":34784,
			"byteOffset":1602784,
			"target":34962
		},
		{
			"buffer":0,
			"byteLength":34784,
			"byteOffset":1637568,
			"target":34962
		},
		{
			"buffer":0,
			"byteLength":17392,
			"byteOffset":1672352,
			"target":34962
		},
		{
			"buffer":0,
			"byteLength":34784,
			"byteOffset":1689744,
			"target":34962
		},
		{
			"buffer":0,
			"byteLength":34784,
			"byteOffset":1724528,
			"target":34962
		},
		{
			"buffer":0,
			"byteLength":15384,
			"byteOffset":1759312,
			"target":34963
		}
	],
	"samplers":[
		{
			"magFilter":9729,
			"minFilter":9987
		}
	],
	"buffers":[
		{
			"byteLength":1774696,
			"uri":"planet_Crystal_surface_iteration_3.bin"
		}
	]
}
