{
	"asset":{
		"generator":"Khronos glTF Blender I/O v4.4.56",
		"version":"2.0"
	},
	"scene":0,
	"scenes":[
		{
			"name":"Scene",
			"nodes":[
				0
			]
		}
	],
	"nodes":[
		{
			"mesh":0,
			"name":"spaceport",
			"rotation":[
				0,
				1,
				0,
				7.549790126404332e-08
			],
			"scale":[
				1.1745073795318604,
				1.1745073795318604,
				1.1745073795318604
			],
			"translation":[
				3.876748561859131,
				0.0999399796128273,
				-3.6652603149414062
			]
		}
	],
	"materials":[
		{
			"doubleSided":true,
			"name":"spaceport_building_house_1_mat",
			"pbrMetallicRoughness":{
				"baseColorTexture":{
					"index":0
				},
				"metallicFactor":0
			}
		},
		{
			"doubleSided":true,
			"name":"spaceport_building_slice_mat",
			"pbrMetallicRoughness":{
				"baseColorTexture":{
					"index":1
				},
				"metallicFactor":0
			}
		},
		{
			"doubleSided":true,
			"name":"spaceport_platform_mat",
			"pbrMetallicRoughness":{
				"baseColorTexture":{
					"index":2
				},
				"metallicFactor":0
			}
		},
		{
			"doubleSided":true,
			"name":"spaceport_building_y_mat",
			"pbrMetallicRoughness":{
				"baseColorTexture":{
					"index":3
				},
				"metallicFactor":0
			}
		},
		{
			"doubleSided":true,
			"name":"spaceport_building_cube_mat",
			"pbrMetallicRoughness":{
				"baseColorTexture":{
					"index":4
				},
				"metallicFactor":0
			}
		},
		{
			"doubleSided":true,
			"name":"spaceport_building_screw_mat",
			"pbrMetallicRoughness":{
				"baseColorTexture":{
					"index":5
				},
				"metallicFactor":0,
				"roughnessFactor":0.5
			}
		},
		{
			"doubleSided":true,
			"name":"spaceport_warehouse_house_mat",
			"pbrMetallicRoughness":{
				"baseColorTexture":{
					"index":6
				},
				"metallicFactor":0
			}
		},
		{
			"doubleSided":true,
			"name":"spaceport_warehouse_door_mat",
			"pbrMetallicRoughness":{
				"baseColorTexture":{
					"index":7
				},
				"metallicFactor":0,
				"roughnessFactor":0.5
			}
		},
		{
			"doubleSided":true,
			"name":"spaceport_building_house_2_mat",
			"pbrMetallicRoughness":{
				"baseColorTexture":{
					"index":8
				},
				"metallicFactor":0
			}
		}
	],
	"meshes":[
		{
			"name":"Cube.037",
			"primitives":[
				{
					"attributes":{
						"POSITION":0,
						"NORMAL":1,
						"TEXCOORD_0":2
					},
					"indices":3,
					"material":0
				},
				{
					"attributes":{
						"POSITION":4,
						"NORMAL":5,
						"TEXCOORD_0":6
					},
					"indices":7,
					"material":1
				},
				{
					"attributes":{
						"POSITION":8,
						"NORMAL":9,
						"TEXCOORD_0":10
					},
					"indices":11,
					"material":2
				},
				{
					"attributes":{
						"POSITION":12,
						"NORMAL":13,
						"TEXCOORD_0":14
					},
					"indices":15,
					"material":3
				},
				{
					"attributes":{
						"POSITION":16,
						"NORMAL":17,
						"TEXCOORD_0":18
					},
					"indices":19,
					"material":4
				},
				{
					"attributes":{
						"POSITION":20,
						"NORMAL":21,
						"TEXCOORD_0":22
					},
					"indices":23,
					"material":5
				},
				{
					"attributes":{
						"POSITION":24,
						"NORMAL":25,
						"TEXCOORD_0":26
					},
					"indices":27,
					"material":6
				},
				{
					"attributes":{
						"POSITION":28,
						"NORMAL":29,
						"TEXCOORD_0":30
					},
					"indices":31,
					"material":7
				},
				{
					"attributes":{
						"POSITION":32,
						"NORMAL":33,
						"TEXCOORD_0":34
					},
					"indices":35,
					"material":8
				}
			]
		}
	],
	"textures":[
		{
			"sampler":0,
			"source":0
		},
		{
			"sampler":0,
			"source":1
		},
		{
			"sampler":0,
			"source":2
		},
		{
			"sampler":0,
			"source":3
		},
		{
			"sampler":0,
			"source":4
		},
		{
			"sampler":0,
			"source":5
		},
		{
			"sampler":0,
			"source":6
		},
		{
			"sampler":0,
			"source":7
		},
		{
			"sampler":0,
			"source":8
		}
	],
	"images":[
		{
			"mimeType":"image/png",
			"name":"spaceport_building_house_1_mat",
			"uri":"spaceport_building_house_1_mat.png"
		},
		{
			"mimeType":"image/png",
			"name":"spaceport_building_slice_mat",
			"uri":"spaceport_building_slice_mat.png"
		},
		{
			"mimeType":"image/png",
			"name":"spaceport_platform_mat",
			"uri":"spaceport_platform_mat.png"
		},
		{
			"mimeType":"image/png",
			"name":"spaceport_building_y_mat",
			"uri":"spaceport_building_y_mat.png"
		},
		{
			"mimeType":"image/png",
			"name":"spaceport_building_cube_mat",
			"uri":"spaceport_building_cube_mat.png"
		},
		{
			"mimeType":"image/png",
			"name":"spaceport_building_screw_mat",
			"uri":"spaceport_building_screw_mat.png"
		},
		{
			"mimeType":"image/png",
			"name":"spaceport_warehouse_house_mat",
			"uri":"spaceport_warehouse_house_mat.png"
		},
		{
			"mimeType":"image/png",
			"name":"spaceport_warehouse_door_mat",
			"uri":"spaceport_warehouse_door_mat.png"
		},
		{
			"mimeType":"image/png",
			"name":"spaceport_building_house_2_mat",
			"uri":"spaceport_building_house_2_mat.png"
		}
	],
	"accessors":[
		{
			"bufferView":0,
			"componentType":5126,
			"count":7250,
			"max":[
				6.0113935470581055,
				1.6256963014602661,
				2.0879673957824707
			],
			"min":[
				-1.4591903686523438,
				-1.06549072265625,
				-5.673752307891846
			],
			"type":"VEC3"
		},
		{
			"bufferView":1,
			"componentType":5126,
			"count":7250,
			"type":"VEC3"
		},
		{
			"bufferView":2,
			"componentType":5126,
			"count":7250,
			"type":"VEC2"
		},
		{
			"bufferView":3,
			"componentType":5123,
			"count":16182,
			"type":"SCALAR"
		},
		{
			"bufferView":4,
			"componentType":5126,
			"count":384,
			"max":[
				-1.6113042831420898,
				2.9536335468292236,
				0.011226654052734375
			],
			"min":[
				-2.5443248748779297,
				-0.14298725128173828,
				-0.9217944145202637
			],
			"type":"VEC3"
		},
		{
			"bufferView":5,
			"componentType":5126,
			"count":384,
			"type":"VEC3"
		},
		{
			"bufferView":6,
			"componentType":5126,
			"count":384,
			"type":"VEC2"
		},
		{
			"bufferView":7,
			"componentType":5123,
			"count":588,
			"type":"SCALAR"
		},
		{
			"bufferView":8,
			"componentType":5126,
			"count":450,
			"max":[
				9.494306564331055,
				0.13045734167099,
				2.4290366172790527
			],
			"min":[
				-2.892819881439209,
				-0.30063900351524353,
				-8.670395851135254
			],
			"type":"VEC3"
		},
		{
			"bufferView":9,
			"componentType":5126,
			"count":450,
			"type":"VEC3"
		},
		{
			"bufferView":10,
			"componentType":5126,
			"count":450,
			"type":"VEC2"
		},
		{
			"bufferView":11,
			"componentType":5123,
			"count":1101,
			"type":"SCALAR"
		},
		{
			"bufferView":12,
			"componentType":5126,
			"count":196,
			"max":[
				-1.8927695751190186,
				1.7584238052368164,
				-1.2500089406967163
			],
			"min":[
				-3.2170495986938477,
				-1.264211893081665,
				-4.156229019165039
			],
			"type":"VEC3"
		},
		{
			"bufferView":13,
			"componentType":5126,
			"count":196,
			"type":"VEC3"
		},
		{
			"bufferView":14,
			"componentType":5126,
			"count":196,
			"type":"VEC2"
		},
		{
			"bufferView":15,
			"componentType":5123,
			"count":360,
			"type":"SCALAR"
		},
		{
			"bufferView":16,
			"componentType":5126,
			"count":188,
			"max":[
				-1.8272440433502197,
				0.872124433517456,
				-6.609480857849121
			],
			"min":[
				-3.605659246444702,
				-0.9742981791496277,
				-9.108938217163086
			],
			"type":"VEC3"
		},
		{
			"bufferView":17,
			"componentType":5126,
			"count":188,
			"type":"VEC3"
		},
		{
			"bufferView":18,
			"componentType":5126,
			"count":188,
			"type":"VEC2"
		},
		{
			"bufferView":19,
			"componentType":5123,
			"count":474,
			"type":"SCALAR"
		},
		{
			"bufferView":20,
			"componentType":5126,
			"count":168,
			"max":[
				-2.1039273738861084,
				2.4206669330596924,
				-4.449233531951904
			],
			"min":[
				-3.871089458465576,
				-1.3640795946121216,
				-6.064085006713867
			],
			"type":"VEC3"
		},
		{
			"bufferView":21,
			"componentType":5126,
			"count":168,
			"type":"VEC3"
		},
		{
			"bufferView":22,
			"componentType":5126,
			"count":168,
			"type":"VEC2"
		},
		{
			"bufferView":23,
			"componentType":5123,
			"count":372,
			"type":"SCALAR"
		},
		{
			"bufferView":24,
			"componentType":5126,
			"count":5770,
			"max":[
				9.132143020629883,
				0.7842925786972046,
				2.225050926208496
			],
			"min":[
				-0.4094468951225281,
				0.022587865591049194,
				-8.029948234558105
			],
			"type":"VEC3"
		},
		{
			"bufferView":25,
			"componentType":5126,
			"count":5770,
			"type":"VEC3"
		},
		{
			"bufferView":26,
			"componentType":5126,
			"count":5770,
			"type":"VEC2"
		},
		{
			"bufferView":27,
			"componentType":5123,
			"count":12726,
			"type":"SCALAR"
		},
		{
			"bufferView":28,
			"componentType":5126,
			"count":1008,
			"max":[
				7.6042633056640625,
				0.5316669940948486,
				1.9841724634170532
			],
			"min":[
				-0.18449732661247253,
				0.08815746754407883,
				-7.806034564971924
			],
			"type":"VEC3"
		},
		{
			"bufferView":29,
			"componentType":5126,
			"count":1008,
			"type":"VEC3"
		},
		{
			"bufferView":30,
			"componentType":5126,
			"count":1008,
			"type":"VEC2"
		},
		{
			"bufferView":31,
			"componentType":5123,
			"count":1512,
			"type":"SCALAR"
		},
		{
			"bufferView":32,
			"componentType":5126,
			"count":1056,
			"max":[
				6.026699066162109,
				0.8215509653091431,
				1.908517599105835
			],
			"min":[
				-1.6028668880462646,
				-1.0790716409683228,
				-5.3330230712890625
			],
			"type":"VEC3"
		},
		{
			"bufferView":33,
			"componentType":5126,
			"count":1056,
			"type":"VEC3"
		},
		{
			"bufferView":34,
			"componentType":5126,
			"count":1056,
			"type":"VEC2"
		},
		{
			"bufferView":35,
			"componentType":5123,
			"count":1980,
			"type":"SCALAR"
		}
	],
	"bufferViews":[
		{
			"buffer":0,
			"byteLength":87000,
			"byteOffset":0,
			"target":34962
		},
		{
			"buffer":0,
			"byteLength":87000,
			"byteOffset":87000,
			"target":34962
		},
		{
			"buffer":0,
			"byteLength":58000,
			"byteOffset":174000,
			"target":34962
		},
		{
			"buffer":0,
			"byteLength":32364,
			"byteOffset":232000,
			"target":34963
		},
		{
			"buffer":0,
			"byteLength":4608,
			"byteOffset":264364,
			"target":34962
		},
		{
			"buffer":0,
			"byteLength":4608,
			"byteOffset":268972,
			"target":34962
		},
		{
			"buffer":0,
			"byteLength":3072,
			"byteOffset":273580,
			"target":34962
		},
		{
			"buffer":0,
			"byteLength":1176,
			"byteOffset":276652,
			"target":34963
		},
		{
			"buffer":0,
			"byteLength":5400,
			"byteOffset":277828,
			"target":34962
		},
		{
			"buffer":0,
			"byteLength":5400,
			"byteOffset":283228,
			"target":34962
		},
		{
			"buffer":0,
			"byteLength":3600,
			"byteOffset":288628,
			"target":34962
		},
		{
			"buffer":0,
			"byteLength":2202,
			"byteOffset":292228,
			"target":34963
		},
		{
			"buffer":0,
			"byteLength":2352,
			"byteOffset":294432,
			"target":34962
		},
		{
			"buffer":0,
			"byteLength":2352,
			"byteOffset":296784,
			"target":34962
		},
		{
			"buffer":0,
			"byteLength":1568,
			"byteOffset":299136,
			"target":34962
		},
		{
			"buffer":0,
			"byteLength":720,
			"byteOffset":300704,
			"target":34963
		},
		{
			"buffer":0,
			"byteLength":2256,
			"byteOffset":301424,
			"target":34962
		},
		{
			"buffer":0,
			"byteLength":2256,
			"byteOffset":303680,
			"target":34962
		},
		{
			"buffer":0,
			"byteLength":1504,
			"byteOffset":305936,
			"target":34962
		},
		{
			"buffer":0,
			"byteLength":948,
			"byteOffset":307440,
			"target":34963
		},
		{
			"buffer":0,
			"byteLength":2016,
			"byteOffset":308388,
			"target":34962
		},
		{
			"buffer":0,
			"byteLength":2016,
			"byteOffset":310404,
			"target":34962
		},
		{
			"buffer":0,
			"byteLength":1344,
			"byteOffset":312420,
			"target":34962
		},
		{
			"buffer":0,
			"byteLength":744,
			"byteOffset":313764,
			"target":34963
		},
		{
			"buffer":0,
			"byteLength":69240,
			"byteOffset":314508,
			"target":34962
		},
		{
			"buffer":0,
			"byteLength":69240,
			"byteOffset":383748,
			"target":34962
		},
		{
			"buffer":0,
			"byteLength":46160,
			"byteOffset":452988,
			"target":34962
		},
		{
			"buffer":0,
			"byteLength":25452,
			"byteOffset":499148,
			"target":34963
		},
		{
			"buffer":0,
			"byteLength":12096,
			"byteOffset":524600,
			"target":34962
		},
		{
			"buffer":0,
			"byteLength":12096,
			"byteOffset":536696,
			"target":34962
		},
		{
			"buffer":0,
			"byteLength":8064,
			"byteOffset":548792,
			"target":34962
		},
		{
			"buffer":0,
			"byteLength":3024,
			"byteOffset":556856,
			"target":34963
		},
		{
			"buffer":0,
			"byteLength":12672,
			"byteOffset":559880,
			"target":34962
		},
		{
			"buffer":0,
			"byteLength":12672,
			"byteOffset":572552,
			"target":34962
		},
		{
			"buffer":0,
			"byteLength":8448,
			"byteOffset":585224,
			"target":34962
		},
		{
			"buffer":0,
			"byteLength":3960,
			"byteOffset":593672,
			"target":34963
		}
	],
	"samplers":[
		{
			"magFilter":9729,
			"minFilter":9987
		}
	],
	"buffers":[
		{
			"byteLength":597632,
			"uri":"spaceport_33.bin"
		}
	]
}
