{
	"asset":{
		"generator":"Khronos glTF Blender I/O v4.4.56",
		"version":"2.0"
	},
	"extensionsUsed":[
		"KHR_materials_unlit"
	],
	"scene":0,
	"scenes":[
		{
			"name":"Scene",
			"nodes":[
				0
			]
		}
	],
	"nodes":[
		{
			"mesh":0,
			"name":"Ship",
			"rotation":[
				0.7074941992759705,
				0,
				0,
				0.706719160079956
			],
			"translation":[
				5.69911003112793,
				-0.5783033967018127,
				-1.4585317373275757
			]
		}
	],
	"materials":[
		{
			"doubleSided":true,
			"extensions":{
				"KHR_materials_unlit":{}
			},
			"name":"ShipConnecter",
			"pbrMetallicRoughness":{
				"baseColorTexture":{
					"index":0
				},
				"metallicFactor":0,
				"roughnessFactor":0.9
			}
		},
		{
			"doubleSided":true,
			"extensions":{
				"KHR_materials_unlit":{}
			},
			"name":"ShipRed",
			"pbrMetallicRoughness":{
				"baseColorTexture":{
					"index":1
				},
				"metallicFactor":0,
				"roughnessFactor":0.9
			}
		},
		{
			"doubleSided":true,
			"extensions":{
				"KHR_materials_unlit":{}
			},
			"name":"ShipCarrier",
			"pbrMetallicRoughness":{
				"baseColorTexture":{
					"index":2
				},
				"metallicFactor":0,
				"roughnessFactor":0.9
			}
		}
	],
	"meshes":[
		{
			"name":"Cylinder.004",
			"primitives":[
				{
					"attributes":{
						"POSITION":0,
						"NORMAL":1,
						"TEXCOORD_0":2,
						"COLOR_0":3,
						"COLOR_1":4
					},
					"indices":5,
					"material":0
				},
				{
					"attributes":{
						"POSITION":6,
						"NORMAL":7,
						"TEXCOORD_0":8,
						"COLOR_0":9,
						"COLOR_1":10
					},
					"indices":11,
					"material":1
				},
				{
					"attributes":{
						"POSITION":12,
						"NORMAL":13,
						"TEXCOORD_0":14,
						"COLOR_0":15,
						"COLOR_1":16
					},
					"indices":17,
					"material":2
				}
			]
		}
	],
	"textures":[
		{
			"sampler":0,
			"source":0
		},
		{
			"sampler":0,
			"source":1
		},
		{
			"sampler":0,
			"source":2
		}
	],
	"images":[
		{
			"mimeType":"image/png",
			"name":"GRAY",
			"uri":"GRAY.png"
		},
		{
			"mimeType":"image/png",
			"name":"Ship_Red Base",
			"uri":"Ship_Red%20Base.png"
		},
		{
			"mimeType":"image/png",
			"name":"SHIP_DARK_GREY",
			"uri":"SHIP_DARK_GREY.png"
		}
	],
	"accessors":[
		{
			"bufferView":0,
			"componentType":5126,
			"count":3052,
			"max":[
				0.7300020456314087,
				2.6357674598693848,
				0.7300583720207214
			],
			"min":[
				-12.031848907470703,
				-0.6129546165466309,
				-0.7300013899803162
			],
			"type":"VEC3"
		},
		{
			"bufferView":1,
			"componentType":5126,
			"count":3052,
			"type":"VEC3"
		},
		{
			"bufferView":2,
			"componentType":5126,
			"count":3052,
			"type":"VEC2"
		},
		{
			"bufferView":3,
			"componentType":5121,
			"count":3052,
			"normalized":true,
			"type":"VEC4"
		},
		{
			"bufferView":4,
			"componentType":5123,
			"count":3052,
			"normalized":true,
			"type":"VEC4"
		},
		{
			"bufferView":5,
			"componentType":5123,
			"count":5112,
			"type":"SCALAR"
		},
		{
			"bufferView":6,
			"componentType":5126,
			"count":924,
			"max":[
				0.6422882080078125,
				2.3105196952819824,
				0.2345898151397705
			],
			"min":[
				-11.944134712219238,
				-1.8847367763519287,
				-1.4822710752487183
			],
			"type":"VEC3"
		},
		{
			"bufferView":7,
			"componentType":5126,
			"count":924,
			"type":"VEC3"
		},
		{
			"bufferView":8,
			"componentType":5126,
			"count":924,
			"type":"VEC2"
		},
		{
			"bufferView":9,
			"componentType":5121,
			"count":924,
			"normalized":true,
			"type":"VEC4"
		},
		{
			"bufferView":10,
			"componentType":5123,
			"count":924,
			"normalized":true,
			"type":"VEC4"
		},
		{
			"bufferView":11,
			"componentType":5123,
			"count":2394,
			"type":"SCALAR"
		},
		{
			"bufferView":12,
			"componentType":5126,
			"count":724,
			"max":[
				-3.2121009826660156,
				9.796974182128906,
				3.3015475273132324
			],
			"min":[
				-8.39148998260498,
				0.7854430675506592,
				-1.047370195388794
			],
			"type":"VEC3"
		},
		{
			"bufferView":13,
			"componentType":5126,
			"count":724,
			"type":"VEC3"
		},
		{
			"bufferView":14,
			"componentType":5126,
			"count":724,
			"type":"VEC2"
		},
		{
			"bufferView":15,
			"componentType":5121,
			"count":724,
			"normalized":true,
			"type":"VEC4"
		},
		{
			"bufferView":16,
			"componentType":5123,
			"count":724,
			"normalized":true,
			"type":"VEC4"
		},
		{
			"bufferView":17,
			"componentType":5123,
			"count":1368,
			"type":"SCALAR"
		}
	],
	"bufferViews":[
		{
			"buffer":0,
			"byteLength":36624,
			"byteOffset":0,
			"target":34962
		},
		{
			"buffer":0,
			"byteLength":36624,
			"byteOffset":36624,
			"target":34962
		},
		{
			"buffer":0,
			"byteLength":24416,
			"byteOffset":73248,
			"target":34962
		},
		{
			"buffer":0,
			"byteLength":12208,
			"byteOffset":97664,
			"target":34962
		},
		{
			"buffer":0,
			"byteLength":24416,
			"byteOffset":109872,
			"target":34962
		},
		{
			"buffer":0,
			"byteLength":10224,
			"byteOffset":134288,
			"target":34963
		},
		{
			"buffer":0,
			"byteLength":11088,
			"byteOffset":144512,
			"target":34962
		},
		{
			"buffer":0,
			"byteLength":11088,
			"byteOffset":155600,
			"target":34962
		},
		{
			"buffer":0,
			"byteLength":7392,
			"byteOffset":166688,
			"target":34962
		},
		{
			"buffer":0,
			"byteLength":3696,
			"byteOffset":174080,
			"target":34962
		},
		{
			"buffer":0,
			"byteLength":7392,
			"byteOffset":177776,
			"target":34962
		},
		{
			"buffer":0,
			"byteLength":4788,
			"byteOffset":185168,
			"target":34963
		},
		{
			"buffer":0,
			"byteLength":8688,
			"byteOffset":189956,
			"target":34962
		},
		{
			"buffer":0,
			"byteLength":8688,
			"byteOffset":198644,
			"target":34962
		},
		{
			"buffer":0,
			"byteLength":5792,
			"byteOffset":207332,
			"target":34962
		},
		{
			"buffer":0,
			"byteLength":2896,
			"byteOffset":213124,
			"target":34962
		},
		{
			"buffer":0,
			"byteLength":5792,
			"byteOffset":216020,
			"target":34962
		},
		{
			"buffer":0,
			"byteLength":2736,
			"byteOffset":221812,
			"target":34963
		}
	],
	"samplers":[
		{
			"magFilter":9729,
			"minFilter":9987
		}
	],
	"buffers":[
		{
			"byteLength":224548,
			"uri":"ship.bin"
		}
	]
}
