{
	"asset":{
		"generator":"Khronos glTF Blender I/O v4.4.56",
		"version":"2.0"
	},
	"scene":0,
	"scenes":[
		{
			"name":"Scene",
			"nodes":[
				0
			]
		}
	],
	"nodes":[
		{
			"mesh":0,
			"name":"planet_crystal_factory.001",
			"rotation":[
				0.06207513064146042,
				-0.2724922001361847,
				-0.7558057308197021,
				0.5921590328216553
			],
			"scale":[
				0.0013486575335264206,
				0.0013486575335264206,
				0.0013486571842804551
			],
			"translation":[
				4.650245666503906,
				-0.5628201365470886,
				2.488553285598755
			]
		}
	],
	"materials":[
		{
			"doubleSided":true,
			"name":"Material.006",
			"pbrMetallicRoughness":{
				"baseColorTexture":{
					"index":0
				},
				"metallicFactor":0
			}
		},
		{
			"doubleSided":true,
			"name":"Material.001",
			"pbrMetallicRoughness":{
				"baseColorTexture":{
					"index":1
				},
				"metallicFactor":0,
				"roughnessFactor":0.531818151473999
			}
		},
		{
			"doubleSided":true,
			"name":"Material.004",
			"pbrMetallicRoughness":{
				"baseColorTexture":{
					"index":2
				},
				"metallicFactor":0
			}
		},
		{
			"doubleSided":true,
			"name":"Material.003",
			"pbrMetallicRoughness":{
				"baseColorTexture":{
					"index":3
				},
				"metallicFactor":0,
				"roughnessFactor":0.5
			}
		},
		{
			"doubleSided":true,
			"name":"Material.005",
			"pbrMetallicRoughness":{
				"baseColorTexture":{
					"index":4
				},
				"metallicFactor":0,
				"roughnessFactor":0.5
			}
		}
	],
	"meshes":[
		{
			"name":"Mesh.004",
			"primitives":[
				{
					"attributes":{
						"POSITION":0,
						"NORMAL":1,
						"TEXCOORD_0":2,
						"TEXCOORD_1":3,
						"TEXCOORD_2":4,
						"COLOR_0":5,
						"COLOR_1":6,
						"COLOR_2":7
					},
					"indices":8,
					"material":0
				},
				{
					"attributes":{
						"POSITION":9,
						"NORMAL":10,
						"TEXCOORD_0":11,
						"TEXCOORD_1":12,
						"TEXCOORD_2":13,
						"COLOR_0":14,
						"COLOR_1":15,
						"COLOR_2":16
					},
					"indices":17,
					"material":1
				},
				{
					"attributes":{
						"POSITION":18,
						"NORMAL":19,
						"TEXCOORD_0":20,
						"TEXCOORD_1":21,
						"TEXCOORD_2":22,
						"COLOR_0":23,
						"COLOR_1":24,
						"COLOR_2":25
					},
					"indices":26,
					"material":2
				},
				{
					"attributes":{
						"POSITION":27,
						"NORMAL":28,
						"TEXCOORD_0":29,
						"TEXCOORD_1":30,
						"TEXCOORD_2":31,
						"COLOR_0":32,
						"COLOR_1":33,
						"COLOR_2":34
					},
					"indices":35,
					"material":3
				},
				{
					"attributes":{
						"POSITION":36,
						"NORMAL":37,
						"TEXCOORD_0":38,
						"TEXCOORD_1":39,
						"TEXCOORD_2":40,
						"COLOR_0":41,
						"COLOR_1":42,
						"COLOR_2":43
					},
					"indices":44,
					"material":4
				}
			]
		}
	],
	"textures":[
		{
			"sampler":0,
			"source":0
		},
		{
			"sampler":0,
			"source":1
		},
		{
			"sampler":0,
			"source":2
		},
		{
			"sampler":0,
			"source":3
		},
		{
			"sampler":0,
			"source":4
		}
	],
	"images":[
		{
			"mimeType":"image/png",
			"name":"planet_crystal_factory_mat",
			"uri":"planet_crystal_factory_mat.png"
		},
		{
			"mimeType":"image/png",
			"name":"planet_crystal_surface_mat",
			"uri":"planet_crystal_surface_mat.png"
		},
		{
			"mimeType":"image/png",
			"name":"planet_crystal_factory_excavator_wheel_mat",
			"uri":"planet_crystal_factory_excavator_wheel_mat.png"
		},
		{
			"mimeType":"image/png",
			"name":"planet_crystal_factory_excavator_body_mat",
			"uri":"planet_crystal_factory_excavator_body_mat.png"
		},
		{
			"mimeType":"image/png",
			"name":"planet_crystal_factory_excavator_drill_mat",
			"uri":"planet_crystal_factory_excavator_drill_mat.png"
		}
	],
	"accessors":[
		{
			"bufferView":0,
			"componentType":5126,
			"count":7892,
			"max":[
				505.9315185546875,
				1906.89501953125,
				623.0137939453125
			],
			"min":[
				-4422.3203125,
				-5913.5087890625,
				-3147.2333984375
			],
			"type":"VEC3"
		},
		{
			"bufferView":1,
			"componentType":5126,
			"count":7892,
			"type":"VEC3"
		},
		{
			"bufferView":2,
			"componentType":5126,
			"count":7892,
			"type":"VEC2"
		},
		{
			"bufferView":3,
			"componentType":5126,
			"count":7892,
			"type":"VEC2"
		},
		{
			"bufferView":4,
			"componentType":5126,
			"count":7892,
			"type":"VEC2"
		},
		{
			"bufferView":5,
			"componentType":5121,
			"count":7892,
			"normalized":true,
			"type":"VEC4"
		},
		{
			"bufferView":6,
			"componentType":5123,
			"count":7892,
			"normalized":true,
			"type":"VEC4"
		},
		{
			"bufferView":7,
			"componentType":5123,
			"count":7892,
			"normalized":true,
			"type":"VEC4"
		},
		{
			"bufferView":8,
			"componentType":5123,
			"count":15384,
			"type":"SCALAR"
		},
		{
			"bufferView":9,
			"componentType":5126,
			"count":958,
			"max":[
				4313.3359375,
				324.509521484375,
				4278.1240234375
			],
			"min":[
				-4367.748046875,
				-8603.7783203125,
				-4145.65673828125
			],
			"type":"VEC3"
		},
		{
			"bufferView":10,
			"componentType":5126,
			"count":958,
			"type":"VEC3"
		},
		{
			"bufferView":11,
			"componentType":5126,
			"count":958,
			"type":"VEC2"
		},
		{
			"bufferView":12,
			"componentType":5126,
			"count":958,
			"type":"VEC2"
		},
		{
			"bufferView":13,
			"componentType":5126,
			"count":958,
			"type":"VEC2"
		},
		{
			"bufferView":14,
			"componentType":5121,
			"count":958,
			"normalized":true,
			"type":"VEC4"
		},
		{
			"bufferView":15,
			"componentType":5123,
			"count":958,
			"normalized":true,
			"type":"VEC4"
		},
		{
			"bufferView":16,
			"componentType":5123,
			"count":958,
			"normalized":true,
			"type":"VEC4"
		},
		{
			"bufferView":17,
			"componentType":5123,
			"count":3840,
			"type":"SCALAR"
		},
		{
			"bufferView":18,
			"componentType":5126,
			"count":6061,
			"max":[
				3203.54931640625,
				-4523.001953125,
				4627.2646484375
			],
			"min":[
				397.675048828125,
				-7006.224609375,
				2128.898681640625
			],
			"type":"VEC3"
		},
		{
			"bufferView":19,
			"componentType":5126,
			"count":6061,
			"type":"VEC3"
		},
		{
			"bufferView":20,
			"componentType":5126,
			"count":6061,
			"type":"VEC2"
		},
		{
			"bufferView":21,
			"componentType":5126,
			"count":6061,
			"type":"VEC2"
		},
		{
			"bufferView":22,
			"componentType":5126,
			"count":6061,
			"type":"VEC2"
		},
		{
			"bufferView":23,
			"componentType":5121,
			"count":6061,
			"normalized":true,
			"type":"VEC4"
		},
		{
			"bufferView":24,
			"componentType":5123,
			"count":6061,
			"normalized":true,
			"type":"VEC4"
		},
		{
			"bufferView":25,
			"componentType":5123,
			"count":6061,
			"normalized":true,
			"type":"VEC4"
		},
		{
			"bufferView":26,
			"componentType":5123,
			"count":9624,
			"type":"SCALAR"
		},
		{
			"bufferView":27,
			"componentType":5126,
			"count":836,
			"max":[
				2645.215576171875,
				-4020.712646484375,
				4769.791015625
			],
			"min":[
				721.9761962890625,
				-7027.884765625,
				2618.725341796875
			],
			"type":"VEC3"
		},
		{
			"bufferView":28,
			"componentType":5126,
			"count":836,
			"type":"VEC3"
		},
		{
			"bufferView":29,
			"componentType":5126,
			"count":836,
			"type":"VEC2"
		},
		{
			"bufferView":30,
			"componentType":5126,
			"count":836,
			"type":"VEC2"
		},
		{
			"bufferView":31,
			"componentType":5126,
			"count":836,
			"type":"VEC2"
		},
		{
			"bufferView":32,
			"componentType":5121,
			"count":836,
			"normalized":true,
			"type":"VEC4"
		},
		{
			"bufferView":33,
			"componentType":5123,
			"count":836,
			"normalized":true,
			"type":"VEC4"
		},
		{
			"bufferView":34,
			"componentType":5123,
			"count":836,
			"normalized":true,
			"type":"VEC4"
		},
		{
			"bufferView":35,
			"componentType":5123,
			"count":1224,
			"type":"SCALAR"
		},
		{
			"bufferView":36,
			"componentType":5126,
			"count":2651,
			"max":[
				2590.442138671875,
				-3682.291748046875,
				5432.53125
			],
			"min":[
				1376.19873046875,
				-4998.86474609375,
				3674.72509765625
			],
			"type":"VEC3"
		},
		{
			"bufferView":37,
			"componentType":5126,
			"count":2651,
			"type":"VEC3"
		},
		{
			"bufferView":38,
			"componentType":5126,
			"count":2651,
			"type":"VEC2"
		},
		{
			"bufferView":39,
			"componentType":5126,
			"count":2651,
			"type":"VEC2"
		},
		{
			"bufferView":40,
			"componentType":5126,
			"count":2651,
			"type":"VEC2"
		},
		{
			"bufferView":41,
			"componentType":5121,
			"count":2651,
			"normalized":true,
			"type":"VEC4"
		},
		{
			"bufferView":42,
			"componentType":5123,
			"count":2651,
			"normalized":true,
			"type":"VEC4"
		},
		{
			"bufferView":43,
			"componentType":5123,
			"count":2651,
			"normalized":true,
			"type":"VEC4"
		},
		{
			"bufferView":44,
			"componentType":5123,
			"count":5547,
			"type":"SCALAR"
		}
	],
	"bufferViews":[
		{
			"buffer":0,
			"byteLength":94704,
			"byteOffset":0,
			"target":34962
		},
		{
			"buffer":0,
			"byteLength":94704,
			"byteOffset":94704,
			"target":34962
		},
		{
			"buffer":0,
			"byteLength":63136,
			"byteOffset":189408,
			"target":34962
		},
		{
			"buffer":0,
			"byteLength":63136,
			"byteOffset":252544,
			"target":34962
		},
		{
			"buffer":0,
			"byteLength":63136,
			"byteOffset":315680,
			"target":34962
		},
		{
			"buffer":0,
			"byteLength":31568,
			"byteOffset":378816,
			"target":34962
		},
		{
			"buffer":0,
			"byteLength":63136,
			"byteOffset":410384,
			"target":34962
		},
		{
			"buffer":0,
			"byteLength":63136,
			"byteOffset":473520,
			"target":34962
		},
		{
			"buffer":0,
			"byteLength":30768,
			"byteOffset":536656,
			"target":34963
		},
		{
			"buffer":0,
			"byteLength":11496,
			"byteOffset":567424,
			"target":34962
		},
		{
			"buffer":0,
			"byteLength":11496,
			"byteOffset":578920,
			"target":34962
		},
		{
			"buffer":0,
			"byteLength":7664,
			"byteOffset":590416,
			"target":34962
		},
		{
			"buffer":0,
			"byteLength":7664,
			"byteOffset":598080,
			"target":34962
		},
		{
			"buffer":0,
			"byteLength":7664,
			"byteOffset":605744,
			"target":34962
		},
		{
			"buffer":0,
			"byteLength":3832,
			"byteOffset":613408,
			"target":34962
		},
		{
			"buffer":0,
			"byteLength":7664,
			"byteOffset":617240,
			"target":34962
		},
		{
			"buffer":0,
			"byteLength":7664,
			"byteOffset":624904,
			"target":34962
		},
		{
			"buffer":0,
			"byteLength":7680,
			"byteOffset":632568,
			"target":34963
		},
		{
			"buffer":0,
			"byteLength":72732,
			"byteOffset":640248,
			"target":34962
		},
		{
			"buffer":0,
			"byteLength":72732,
			"byteOffset":712980,
			"target":34962
		},
		{
			"buffer":0,
			"byteLength":48488,
			"byteOffset":785712,
			"target":34962
		},
		{
			"buffer":0,
			"byteLength":48488,
			"byteOffset":834200,
			"target":34962
		},
		{
			"buffer":0,
			"byteLength":48488,
			"byteOffset":882688,
			"target":34962
		},
		{
			"buffer":0,
			"byteLength":24244,
			"byteOffset":931176,
			"target":34962
		},
		{
			"buffer":0,
			"byteLength":48488,
			"byteOffset":955420,
			"target":34962
		},
		{
			"buffer":0,
			"byteLength":48488,
			"byteOffset":1003908,
			"target":34962
		},
		{
			"buffer":0,
			"byteLength":19248,
			"byteOffset":1052396,
			"target":34963
		},
		{
			"buffer":0,
			"byteLength":10032,
			"byteOffset":1071644,
			"target":34962
		},
		{
			"buffer":0,
			"byteLength":10032,
			"byteOffset":1081676,
			"target":34962
		},
		{
			"buffer":0,
			"byteLength":6688,
			"byteOffset":1091708,
			"target":34962
		},
		{
			"buffer":0,
			"byteLength":6688,
			"byteOffset":1098396,
			"target":34962
		},
		{
			"buffer":0,
			"byteLength":6688,
			"byteOffset":1105084,
			"target":34962
		},
		{
			"buffer":0,
			"byteLength":3344,
			"byteOffset":1111772,
			"target":34962
		},
		{
			"buffer":0,
			"byteLength":6688,
			"byteOffset":1115116,
			"target":34962
		},
		{
			"buffer":0,
			"byteLength":6688,
			"byteOffset":1121804,
			"target":34962
		},
		{
			"buffer":0,
			"byteLength":2448,
			"byteOffset":1128492,
			"target":34963
		},
		{
			"buffer":0,
			"byteLength":31812,
			"byteOffset":1130940,
			"target":34962
		},
		{
			"buffer":0,
			"byteLength":31812,
			"byteOffset":1162752,
			"target":34962
		},
		{
			"buffer":0,
			"byteLength":21208,
			"byteOffset":1194564,
			"target":34962
		},
		{
			"buffer":0,
			"byteLength":21208,
			"byteOffset":1215772,
			"target":34962
		},
		{
			"buffer":0,
			"byteLength":21208,
			"byteOffset":1236980,
			"target":34962
		},
		{
			"buffer":0,
			"byteLength":10604,
			"byteOffset":1258188,
			"target":34962
		},
		{
			"buffer":0,
			"byteLength":21208,
			"byteOffset":1268792,
			"target":34962
		},
		{
			"buffer":0,
			"byteLength":21208,
			"byteOffset":1290000,
			"target":34962
		},
		{
			"buffer":0,
			"byteLength":11094,
			"byteOffset":1311208,
			"target":34963
		}
	],
	"samplers":[
		{
			"magFilter":9729,
			"minFilter":9987
		}
	],
	"buffers":[
		{
			"byteLength":1322304,
			"uri":"planet_Crystal_surface_iteration_2.bin"
		}
	]
}
