{
	"asset":{
		"generator":"Khronos glTF Blender I/O v4.4.56",
		"version":"2.0"
	},
	"scene":0,
	"scenes":[
		{
			"name":"Scene",
			"nodes":[
				0
			]
		}
	],
	"nodes":[
		{
			"mesh":0,
			"name":"asteroid_satellite_2",
			"rotation":[
				0.7071068286895752,
				0,
				0,
				0.7071068286895752
			],
			"scale":[
				0.009999999776482582,
				0.009999999776482582,
				0.009999999776482582
			],
			"translation":[
				-0.4086991548538208,
				-0.2611999213695526,
				0
			]
		}
	],
	"materials":[
		{
			"doubleSided":true,
			"name":"Material.002",
			"pbrMetallicRoughness":{
				"baseColorTexture":{
					"index":0
				},
				"metallicFactor":0
			}
		}
	],
	"meshes":[
		{
			"name":"Cube.213",
			"primitives":[
				{
					"attributes":{
						"POSITION":0,
						"NORMAL":1,
						"TEXCOORD_0":2
					},
					"indices":3,
					"material":0
				}
			]
		}
	],
	"textures":[
		{
			"sampler":0,
			"source":0
		}
	],
	"images":[
		{
			"mimeType":"image/png",
			"name":"asteroid_satellite_2_mat",
			"uri":"asteroid_satellite_2_mat.png"
		}
	],
	"accessors":[
		{
			"bufferView":0,
			"componentType":5126,
			"count":910,
			"max":[
				114.37136840820312,
				56.53903579711914,
				5.8739447593688965
			],
			"min":[
				-25.037033081054688,
				-40.28129196166992,
				-159.99493408203125
			],
			"type":"VEC3"
		},
		{
			"bufferView":1,
			"componentType":5126,
			"count":910,
			"type":"VEC3"
		},
		{
			"bufferView":2,
			"componentType":5126,
			"count":910,
			"type":"VEC2"
		},
		{
			"bufferView":3,
			"componentType":5123,
			"count":1728,
			"type":"SCALAR"
		}
	],
	"bufferViews":[
		{
			"buffer":0,
			"byteLength":10920,
			"byteOffset":0,
			"target":34962
		},
		{
			"buffer":0,
			"byteLength":10920,
			"byteOffset":10920,
			"target":34962
		},
		{
			"buffer":0,
			"byteLength":7280,
			"byteOffset":21840,
			"target":34962
		},
		{
			"buffer":0,
			"byteLength":3456,
			"byteOffset":29120,
			"target":34963
		}
	],
	"samplers":[
		{
			"magFilter":9729,
			"minFilter":9987
		}
	],
	"buffers":[
		{
			"byteLength":32576,
			"uri":"asteroid_satellite_2.bin"
		}
	]
}
