{
	"asset":{
		"generator":"Khronos glTF Blender I/O v4.3.47",
		"version":"2.0"
	},
	"scene":0,
	"scenes":[
		{
			"name":"Scene",
			"nodes":[
				0
			]
		}
	],
	"nodes":[
		{
			"mesh":0,
			"name":"Icosphere.003",
			"rotation":[
				-0.8033449649810791,
				-0.5761628746986389,
				-0.15044096112251282,
				0.0063796089962124825
			],
			"scale":[
				0.009999999776482582,
				0.009999999776482582,
				0.009999999776482582
			]
		}
	],
	"materials":[
		{
			"doubleSided":true,
			"name":"Material.001",
			"pbrMetallicRoughness":{
				"baseColorTexture":{
					"index":0
				},
				"metallicFactor":0
			}
		},
		{
			"doubleSided":true,
			"name":"Material.005",
			"pbrMetallicRoughness":{
				"baseColorTexture":{
					"index":1
				},
				"metallicFactor":0,
				"roughnessFactor":0.5
			}
		},
		{
			"doubleSided":true,
			"name":"Material.006",
			"pbrMetallicRoughness":{
				"baseColorTexture":{
					"index":2
				},
				"metallicFactor":0
			}
		},
		{
			"doubleSided":true,
			"name":"Material.003",
			"pbrMetallicRoughness":{
				"baseColorTexture":{
					"index":3
				},
				"metallicFactor":0
			}
		},
		{
			"doubleSided":true,
			"name":"Material.004",
			"pbrMetallicRoughness":{
				"baseColorTexture":{
					"index":4
				},
				"metallicFactor":0
			}
		},
		{
			"doubleSided":true,
			"name":"Material.002",
			"pbrMetallicRoughness":{
				"baseColorTexture":{
					"index":5
				},
				"metallicFactor":0
			}
		},
		{
			"doubleSided":true,
			"name":"planet_ant_factory_1_mat",
			"pbrMetallicRoughness":{
				"baseColorTexture":{
					"index":6
				},
				"metallicFactor":0
			}
		},
		{
			"doubleSided":true,
			"name":"planet_ant_factory_2_mat",
			"pbrMetallicRoughness":{
				"baseColorTexture":{
					"index":7
				},
				"metallicFactor":0
			}
		},
		{
			"doubleSided":true,
			"name":"planet_ant_factory_big_mat",
			"pbrMetallicRoughness":{
				"baseColorTexture":{
					"index":8
				},
				"metallicFactor":0
			}
		}
	],
	"meshes":[
		{
			"name":"Icosphere.008",
			"primitives":[
				{
					"attributes":{
						"POSITION":0,
						"NORMAL":1,
						"TEXCOORD_0":2,
						"COLOR_0":3,
						"COLOR_1":4,
						"COLOR_2":5
					},
					"indices":6,
					"material":0
				},
				{
					"attributes":{
						"POSITION":7,
						"NORMAL":8,
						"TEXCOORD_0":9,
						"COLOR_0":10,
						"COLOR_1":11,
						"COLOR_2":12
					},
					"indices":13,
					"material":1
				},
				{
					"attributes":{
						"POSITION":14,
						"NORMAL":15,
						"TEXCOORD_0":16,
						"COLOR_0":17,
						"COLOR_1":18,
						"COLOR_2":19
					},
					"indices":20,
					"material":2
				},
				{
					"attributes":{
						"POSITION":21,
						"NORMAL":22,
						"TEXCOORD_0":23,
						"COLOR_0":24,
						"COLOR_1":25,
						"COLOR_2":26
					},
					"indices":27,
					"material":3
				},
				{
					"attributes":{
						"POSITION":28,
						"NORMAL":29,
						"TEXCOORD_0":30,
						"COLOR_0":31,
						"COLOR_1":32,
						"COLOR_2":33
					},
					"indices":34,
					"material":4
				},
				{
					"attributes":{
						"POSITION":35,
						"NORMAL":36,
						"TEXCOORD_0":37,
						"COLOR_0":38,
						"COLOR_1":39,
						"COLOR_2":40
					},
					"indices":41,
					"material":5
				},
				{
					"attributes":{
						"POSITION":42,
						"NORMAL":43,
						"TEXCOORD_0":44,
						"COLOR_0":45,
						"COLOR_1":46,
						"COLOR_2":47
					},
					"indices":48,
					"material":6
				},
				{
					"attributes":{
						"POSITION":49,
						"NORMAL":50,
						"TEXCOORD_0":51,
						"COLOR_0":52,
						"COLOR_1":53,
						"COLOR_2":54
					},
					"indices":55,
					"material":7
				},
				{
					"attributes":{
						"POSITION":56,
						"NORMAL":57,
						"TEXCOORD_0":58,
						"COLOR_0":59,
						"COLOR_1":60,
						"COLOR_2":61
					},
					"indices":62,
					"material":8
				}
			]
		}
	],
	"textures":[
		{
			"sampler":0,
			"source":0
		},
		{
			"sampler":0,
			"source":1
		},
		{
			"sampler":0,
			"source":2
		},
		{
			"sampler":0,
			"source":3
		},
		{
			"sampler":0,
			"source":4
		},
		{
			"sampler":0,
			"source":5
		},
		{
			"sampler":0,
			"source":6
		},
		{
			"sampler":0,
			"source":7
		},
		{
			"sampler":0,
			"source":8
		}
	],
	"images":[
		{
			"mimeType":"image/png",
			"name":"planet_ant_surface_mat",
			"uri":"planet_ant_surface_mat.png"
		},
		{
			"mimeType":"image/png",
			"name":"planet_ant_grass_mat",
			"uri":"planet_ant_grass_mat.png"
		},
		{
			"mimeType":"image/png",
			"name":"planet_ant_tree_mat",
			"uri":"planet_ant_tree_mat.png"
		},
		{
			"mimeType":"image/png",
			"name":"ant_planet_house_2_mat",
			"uri":"ant_planet_house_2_mat.png"
		},
		{
			"mimeType":"image/png",
			"name":"planet_ant_house_3_mat",
			"uri":"planet_ant_house_3_mat.png"
		},
		{
			"mimeType":"image/png",
			"name":"planet_ant_house_1_mat",
			"uri":"planet_ant_house_1_mat.png"
		},
		{
			"mimeType":"image/png",
			"name":"planet_ant_factory_1_mat",
			"uri":"planet_ant_factory_1_mat.png"
		},
		{
			"mimeType":"image/png",
			"name":"planet_ant_factory_2_mat",
			"uri":"planet_ant_factory_2_mat.png"
		},
		{
			"mimeType":"image/png",
			"name":"planet_ant_factory_big_mat",
			"uri":"planet_ant_factory_big_mat.png"
		}
	],
	"accessors":[
		{
			"bufferView":0,
			"componentType":5126,
			"count":9252,
			"max":[
				645.1329345703125,
				636.451904296875,
				639.2644653320312
			],
			"min":[
				-572.2189331054688,
				-647.8577270507812,
				-651.8861083984375
			],
			"type":"VEC3"
		},
		{
			"bufferView":1,
			"componentType":5126,
			"count":9252,
			"type":"VEC3"
		},
		{
			"bufferView":2,
			"componentType":5126,
			"count":9252,
			"type":"VEC2"
		},
		{
			"bufferView":3,
			"componentType":5121,
			"count":9252,
			"normalized":true,
			"type":"VEC4"
		},
		{
			"bufferView":4,
			"componentType":5123,
			"count":9252,
			"normalized":true,
			"type":"VEC4"
		},
		{
			"bufferView":5,
			"componentType":5123,
			"count":9252,
			"normalized":true,
			"type":"VEC4"
		},
		{
			"bufferView":6,
			"componentType":5123,
			"count":53427,
			"type":"SCALAR"
		},
		{
			"bufferView":7,
			"componentType":5126,
			"count":3190,
			"max":[
				564.32421875,
				337.9312744140625,
				605.6552124023438
			],
			"min":[
				-51.78462600708008,
				-638.8584594726562,
				-664.4176635742188
			],
			"type":"VEC3"
		},
		{
			"bufferView":8,
			"componentType":5126,
			"count":3190,
			"type":"VEC3"
		},
		{
			"bufferView":9,
			"componentType":5126,
			"count":3190,
			"type":"VEC2"
		},
		{
			"bufferView":10,
			"componentType":5121,
			"count":3190,
			"normalized":true,
			"type":"VEC4"
		},
		{
			"bufferView":11,
			"componentType":5123,
			"count":3190,
			"normalized":true,
			"type":"VEC4"
		},
		{
			"bufferView":12,
			"componentType":5123,
			"count":3190,
			"normalized":true,
			"type":"VEC4"
		},
		{
			"bufferView":13,
			"componentType":5123,
			"count":14670,
			"type":"SCALAR"
		},
		{
			"bufferView":14,
			"componentType":5126,
			"count":8449,
			"max":[
				598.0798950195312,
				396.2114562988281,
				576.7633056640625
			],
			"min":[
				-43.03070068359375,
				-710.2589721679688,
				-671.4068603515625
			],
			"type":"VEC3"
		},
		{
			"bufferView":15,
			"componentType":5126,
			"count":8449,
			"type":"VEC3"
		},
		{
			"bufferView":16,
			"componentType":5126,
			"count":8449,
			"type":"VEC2"
		},
		{
			"bufferView":17,
			"componentType":5121,
			"count":8449,
			"normalized":true,
			"type":"VEC4"
		},
		{
			"bufferView":18,
			"componentType":5123,
			"count":8449,
			"normalized":true,
			"type":"VEC4"
		},
		{
			"bufferView":19,
			"componentType":5123,
			"count":8449,
			"normalized":true,
			"type":"VEC4"
		},
		{
			"bufferView":20,
			"componentType":5123,
			"count":39120,
			"type":"SCALAR"
		},
		{
			"bufferView":21,
			"componentType":5126,
			"count":1805,
			"max":[
				319.6839599609375,
				-526.005126953125,
				216.04046630859375
			],
			"min":[
				-112.87958526611328,
				-752.6907958984375,
				-187.5200958251953
			],
			"type":"VEC3"
		},
		{
			"bufferView":22,
			"componentType":5126,
			"count":1805,
			"type":"VEC3"
		},
		{
			"bufferView":23,
			"componentType":5126,
			"count":1805,
			"type":"VEC2"
		},
		{
			"bufferView":24,
			"componentType":5121,
			"count":1805,
			"normalized":true,
			"type":"VEC4"
		},
		{
			"bufferView":25,
			"componentType":5123,
			"count":1805,
			"normalized":true,
			"type":"VEC4"
		},
		{
			"bufferView":26,
			"componentType":5123,
			"count":1805,
			"normalized":true,
			"type":"VEC4"
		},
		{
			"bufferView":27,
			"componentType":5123,
			"count":9342,
			"type":"SCALAR"
		},
		{
			"bufferView":28,
			"componentType":5126,
			"count":701,
			"max":[
				237.2467498779297,
				268.8388366699219,
				619.5956420898438
			],
			"min":[
				-134.7440948486328,
				-594.0150146484375,
				281.7554931640625
			],
			"type":"VEC3"
		},
		{
			"bufferView":29,
			"componentType":5126,
			"count":701,
			"type":"VEC3"
		},
		{
			"bufferView":30,
			"componentType":5126,
			"count":701,
			"type":"VEC2"
		},
		{
			"bufferView":31,
			"componentType":5121,
			"count":701,
			"normalized":true,
			"type":"VEC4"
		},
		{
			"bufferView":32,
			"componentType":5123,
			"count":701,
			"normalized":true,
			"type":"VEC4"
		},
		{
			"bufferView":33,
			"componentType":5123,
			"count":701,
			"normalized":true,
			"type":"VEC4"
		},
		{
			"bufferView":34,
			"componentType":5123,
			"count":3147,
			"type":"SCALAR"
		},
		{
			"bufferView":35,
			"componentType":5126,
			"count":1418,
			"max":[
				632.4071044921875,
				440.52081298828125,
				154.03256225585938
			],
			"min":[
				155.6174774169922,
				29.1534366607666,
				-708.5921630859375
			],
			"type":"VEC3"
		},
		{
			"bufferView":36,
			"componentType":5126,
			"count":1418,
			"type":"VEC3"
		},
		{
			"bufferView":37,
			"componentType":5126,
			"count":1418,
			"type":"VEC2"
		},
		{
			"bufferView":38,
			"componentType":5121,
			"count":1418,
			"normalized":true,
			"type":"VEC4"
		},
		{
			"bufferView":39,
			"componentType":5123,
			"count":1418,
			"normalized":true,
			"type":"VEC4"
		},
		{
			"bufferView":40,
			"componentType":5123,
			"count":1418,
			"normalized":true,
			"type":"VEC4"
		},
		{
			"bufferView":41,
			"componentType":5123,
			"count":7608,
			"type":"SCALAR"
		},
		{
			"bufferView":42,
			"componentType":5126,
			"count":982,
			"max":[
				534.0006103515625,
				373.5009460449219,
				509.6170654296875
			],
			"min":[
				360.44525146484375,
				185.24636840820312,
				276.4478454589844
			],
			"type":"VEC3"
		},
		{
			"bufferView":43,
			"componentType":5126,
			"count":982,
			"type":"VEC3"
		},
		{
			"bufferView":44,
			"componentType":5126,
			"count":982,
			"type":"VEC2"
		},
		{
			"bufferView":45,
			"componentType":5121,
			"count":982,
			"normalized":true,
			"type":"VEC4"
		},
		{
			"bufferView":46,
			"componentType":5123,
			"count":982,
			"normalized":true,
			"type":"VEC4"
		},
		{
			"bufferView":47,
			"componentType":5123,
			"count":982,
			"normalized":true,
			"type":"VEC4"
		},
		{
			"bufferView":48,
			"componentType":5123,
			"count":1956,
			"type":"SCALAR"
		},
		{
			"bufferView":49,
			"componentType":5126,
			"count":1705,
			"max":[
				251.29806518554688,
				-83.070068359375,
				653.666748046875
			],
			"min":[
				39.5181770324707,
				-598.7030639648438,
				-438.943603515625
			],
			"type":"VEC3"
		},
		{
			"bufferView":50,
			"componentType":5126,
			"count":1705,
			"type":"VEC3"
		},
		{
			"bufferView":51,
			"componentType":5126,
			"count":1705,
			"type":"VEC2"
		},
		{
			"bufferView":52,
			"componentType":5121,
			"count":1705,
			"normalized":true,
			"type":"VEC4"
		},
		{
			"bufferView":53,
			"componentType":5123,
			"count":1705,
			"normalized":true,
			"type":"VEC4"
		},
		{
			"bufferView":54,
			"componentType":5123,
			"count":1705,
			"normalized":true,
			"type":"VEC4"
		},
		{
			"bufferView":55,
			"componentType":5123,
			"count":3684,
			"type":"SCALAR"
		},
		{
			"bufferView":56,
			"componentType":5126,
			"count":1706,
			"max":[
				401.02935791015625,
				467.0041198730469,
				-393.7724609375
			],
			"min":[
				129.60670471191406,
				161.64520263671875,
				-679.3783569335938
			],
			"type":"VEC3"
		},
		{
			"bufferView":57,
			"componentType":5126,
			"count":1706,
			"type":"VEC3"
		},
		{
			"bufferView":58,
			"componentType":5126,
			"count":1706,
			"type":"VEC2"
		},
		{
			"bufferView":59,
			"componentType":5121,
			"count":1706,
			"normalized":true,
			"type":"VEC4"
		},
		{
			"bufferView":60,
			"componentType":5123,
			"count":1706,
			"normalized":true,
			"type":"VEC4"
		},
		{
			"bufferView":61,
			"componentType":5123,
			"count":1706,
			"normalized":true,
			"type":"VEC4"
		},
		{
			"bufferView":62,
			"componentType":5123,
			"count":4152,
			"type":"SCALAR"
		}
	],
	"bufferViews":[
		{
			"buffer":0,
			"byteLength":111024,
			"byteOffset":0,
			"target":34962
		},
		{
			"buffer":0,
			"byteLength":111024,
			"byteOffset":111024,
			"target":34962
		},
		{
			"buffer":0,
			"byteLength":74016,
			"byteOffset":222048,
			"target":34962
		},
		{
			"buffer":0,
			"byteLength":37008,
			"byteOffset":296064,
			"target":34962
		},
		{
			"buffer":0,
			"byteLength":74016,
			"byteOffset":333072,
			"target":34962
		},
		{
			"buffer":0,
			"byteLength":74016,
			"byteOffset":407088,
			"target":34962
		},
		{
			"buffer":0,
			"byteLength":106854,
			"byteOffset":481104,
			"target":34963
		},
		{
			"buffer":0,
			"byteLength":38280,
			"byteOffset":587960,
			"target":34962
		},
		{
			"buffer":0,
			"byteLength":38280,
			"byteOffset":626240,
			"target":34962
		},
		{
			"buffer":0,
			"byteLength":25520,
			"byteOffset":664520,
			"target":34962
		},
		{
			"buffer":0,
			"byteLength":12760,
			"byteOffset":690040,
			"target":34962
		},
		{
			"buffer":0,
			"byteLength":25520,
			"byteOffset":702800,
			"target":34962
		},
		{
			"buffer":0,
			"byteLength":25520,
			"byteOffset":728320,
			"target":34962
		},
		{
			"buffer":0,
			"byteLength":29340,
			"byteOffset":753840,
			"target":34963
		},
		{
			"buffer":0,
			"byteLength":101388,
			"byteOffset":783180,
			"target":34962
		},
		{
			"buffer":0,
			"byteLength":101388,
			"byteOffset":884568,
			"target":34962
		},
		{
			"buffer":0,
			"byteLength":67592,
			"byteOffset":985956,
			"target":34962
		},
		{
			"buffer":0,
			"byteLength":33796,
			"byteOffset":1053548,
			"target":34962
		},
		{
			"buffer":0,
			"byteLength":67592,
			"byteOffset":1087344,
			"target":34962
		},
		{
			"buffer":0,
			"byteLength":67592,
			"byteOffset":1154936,
			"target":34962
		},
		{
			"buffer":0,
			"byteLength":78240,
			"byteOffset":1222528,
			"target":34963
		},
		{
			"buffer":0,
			"byteLength":21660,
			"byteOffset":1300768,
			"target":34962
		},
		{
			"buffer":0,
			"byteLength":21660,
			"byteOffset":1322428,
			"target":34962
		},
		{
			"buffer":0,
			"byteLength":14440,
			"byteOffset":1344088,
			"target":34962
		},
		{
			"buffer":0,
			"byteLength":7220,
			"byteOffset":1358528,
			"target":34962
		},
		{
			"buffer":0,
			"byteLength":14440,
			"byteOffset":1365748,
			"target":34962
		},
		{
			"buffer":0,
			"byteLength":14440,
			"byteOffset":1380188,
			"target":34962
		},
		{
			"buffer":0,
			"byteLength":18684,
			"byteOffset":1394628,
			"target":34963
		},
		{
			"buffer":0,
			"byteLength":8412,
			"byteOffset":1413312,
			"target":34962
		},
		{
			"buffer":0,
			"byteLength":8412,
			"byteOffset":1421724,
			"target":34962
		},
		{
			"buffer":0,
			"byteLength":5608,
			"byteOffset":1430136,
			"target":34962
		},
		{
			"buffer":0,
			"byteLength":2804,
			"byteOffset":1435744,
			"target":34962
		},
		{
			"buffer":0,
			"byteLength":5608,
			"byteOffset":1438548,
			"target":34962
		},
		{
			"buffer":0,
			"byteLength":5608,
			"byteOffset":1444156,
			"target":34962
		},
		{
			"buffer":0,
			"byteLength":6294,
			"byteOffset":1449764,
			"target":34963
		},
		{
			"buffer":0,
			"byteLength":17016,
			"byteOffset":1456060,
			"target":34962
		},
		{
			"buffer":0,
			"byteLength":17016,
			"byteOffset":1473076,
			"target":34962
		},
		{
			"buffer":0,
			"byteLength":11344,
			"byteOffset":1490092,
			"target":34962
		},
		{
			"buffer":0,
			"byteLength":5672,
			"byteOffset":1501436,
			"target":34962
		},
		{
			"buffer":0,
			"byteLength":11344,
			"byteOffset":1507108,
			"target":34962
		},
		{
			"buffer":0,
			"byteLength":11344,
			"byteOffset":1518452,
			"target":34962
		},
		{
			"buffer":0,
			"byteLength":15216,
			"byteOffset":1529796,
			"target":34963
		},
		{
			"buffer":0,
			"byteLength":11784,
			"byteOffset":1545012,
			"target":34962
		},
		{
			"buffer":0,
			"byteLength":11784,
			"byteOffset":1556796,
			"target":34962
		},
		{
			"buffer":0,
			"byteLength":7856,
			"byteOffset":1568580,
			"target":34962
		},
		{
			"buffer":0,
			"byteLength":3928,
			"byteOffset":1576436,
			"target":34962
		},
		{
			"buffer":0,
			"byteLength":7856,
			"byteOffset":1580364,
			"target":34962
		},
		{
			"buffer":0,
			"byteLength":7856,
			"byteOffset":1588220,
			"target":34962
		},
		{
			"buffer":0,
			"byteLength":3912,
			"byteOffset":1596076,
			"target":34963
		},
		{
			"buffer":0,
			"byteLength":20460,
			"byteOffset":1599988,
			"target":34962
		},
		{
			"buffer":0,
			"byteLength":20460,
			"byteOffset":1620448,
			"target":34962
		},
		{
			"buffer":0,
			"byteLength":13640,
			"byteOffset":1640908,
			"target":34962
		},
		{
			"buffer":0,
			"byteLength":6820,
			"byteOffset":1654548,
			"target":34962
		},
		{
			"buffer":0,
			"byteLength":13640,
			"byteOffset":1661368,
			"target":34962
		},
		{
			"buffer":0,
			"byteLength":13640,
			"byteOffset":1675008,
			"target":34962
		},
		{
			"buffer":0,
			"byteLength":7368,
			"byteOffset":1688648,
			"target":34963
		},
		{
			"buffer":0,
			"byteLength":20472,
			"byteOffset":1696016,
			"target":34962
		},
		{
			"buffer":0,
			"byteLength":20472,
			"byteOffset":1716488,
			"target":34962
		},
		{
			"buffer":0,
			"byteLength":13648,
			"byteOffset":1736960,
			"target":34962
		},
		{
			"buffer":0,
			"byteLength":6824,
			"byteOffset":1750608,
			"target":34962
		},
		{
			"buffer":0,
			"byteLength":13648,
			"byteOffset":1757432,
			"target":34962
		},
		{
			"buffer":0,
			"byteLength":13648,
			"byteOffset":1771080,
			"target":34962
		},
		{
			"buffer":0,
			"byteLength":8304,
			"byteOffset":1784728,
			"target":34963
		}
	],
	"samplers":[
		{
			"magFilter":9729,
			"minFilter":9987
		}
	],
	"buffers":[
		{
			"byteLength":1793032,
			"uri":"planet_ant_iteration_2.bin"
		}
	]
}
