{
	"asset":{
		"generator":"Khronos glTF Blender I/O v4.4.56",
		"version":"2.0"
	},
	"scene":0,
	"scenes":[
		{
			"name":"Scene",
			"nodes":[
				0
			]
		}
	],
	"nodes":[
		{
			"mesh":0,
			"name":"asteroid_general",
			"scale":[
				1.1039172410964966,
				1.1039172410964966,
				0.9939172267913818
			]
		}
	],
	"materials":[
		{
			"doubleSided":true,
			"name":"Material",
			"pbrMetallicRoughness":{
				"baseColorTexture":{
					"index":0
				},
				"metallicFactor":0
			}
		}
	],
	"meshes":[
		{
			"name":"Icosphere",
			"primitives":[
				{
					"attributes":{
						"POSITION":0,
						"NORMAL":1,
						"TEXCOORD_0":2
					},
					"indices":3,
					"material":0
				}
			]
		}
	],
	"textures":[
		{
			"sampler":0,
			"source":0
		}
	],
	"images":[
		{
			"mimeType":"image/png",
			"name":"asteroid_general_mat",
			"uri":"asteroid_general_mat.png"
		}
	],
	"accessors":[
		{
			"bufferView":0,
			"componentType":5126,
			"count":1049,
			"max":[
				0.9311290979385376,
				0.9835307002067566,
				1.0448583364486694
			],
			"min":[
				-0.831878125667572,
				-0.918049156665802,
				-0.8532081842422485
			],
			"type":"VEC3"
		},
		{
			"bufferView":1,
			"componentType":5126,
			"count":1049,
			"type":"VEC3"
		},
		{
			"bufferView":2,
			"componentType":5126,
			"count":1049,
			"type":"VEC2"
		},
		{
			"bufferView":3,
			"componentType":5123,
			"count":5760,
			"type":"SCALAR"
		}
	],
	"bufferViews":[
		{
			"buffer":0,
			"byteLength":12588,
			"byteOffset":0,
			"target":34962
		},
		{
			"buffer":0,
			"byteLength":12588,
			"byteOffset":12588,
			"target":34962
		},
		{
			"buffer":0,
			"byteLength":8392,
			"byteOffset":25176,
			"target":34962
		},
		{
			"buffer":0,
			"byteLength":11520,
			"byteOffset":33568,
			"target":34963
		}
	],
	"samplers":[
		{
			"magFilter":9729,
			"minFilter":9987
		}
	],
	"buffers":[
		{
			"byteLength":45088,
			"uri":"asteroid_general.bin"
		}
	]
}
