{
	"asset":{
		"generator":"Khronos glTF Blender I/O v4.4.56",
		"version":"2.0"
	},
	"scene":0,
	"scenes":[
		{
			"name":"Scene",
			"nodes":[
				0
			]
		}
	],
	"nodes":[
		{
			"mesh":0,
			"name":"planet_ocean_surface_water",
			"rotation":[
				0.7071068286895752,
				0,
				0,
				0.7071068286895752
			],
			"scale":[
				0.009552355855703354,
				0.009552355855703354,
				0.009552355855703354
			],
			"translation":[
				0.007041715085506439,
				0,
				0.03334355354309082
			]
		}
	],
	"materials":[
		{
			"doubleSided":true,
			"name":"planet_ocean_surface_water_mat",
			"pbrMetallicRoughness":{
				"baseColorTexture":{
					"index":0
				},
				"metallicFactor":0,
				"roughnessFactor":0.5
			}
		}
	],
	"meshes":[
		{
			"name":"Icosphere.008",
			"primitives":[
				{
					"attributes":{
						"POSITION":0,
						"NORMAL":1,
						"TEXCOORD_0":2
					},
					"indices":3,
					"material":0
				}
			]
		}
	],
	"textures":[
		{
			"sampler":0,
			"source":0
		}
	],
	"images":[
		{
			"mimeType":"image/png",
			"name":"planet_ocean_surface_water_texture",
			"uri":"planet_ocean_surface_water_texture.png"
		}
	],
	"accessors":[
		{
			"bufferView":0,
			"componentType":5126,
			"count":2721,
			"max":[
				721.1116943359375,
				721.1116943359375,
				721.1116943359375
			],
			"min":[
				-721.1116943359375,
				-721.1116943359375,
				-721.1116943359375
			],
			"type":"VEC3"
		},
		{
			"bufferView":1,
			"componentType":5126,
			"count":2721,
			"type":"VEC3"
		},
		{
			"bufferView":2,
			"componentType":5126,
			"count":2721,
			"type":"VEC2"
		},
		{
			"bufferView":3,
			"componentType":5123,
			"count":15360,
			"type":"SCALAR"
		}
	],
	"bufferViews":[
		{
			"buffer":0,
			"byteLength":32652,
			"byteOffset":0,
			"target":34962
		},
		{
			"buffer":0,
			"byteLength":32652,
			"byteOffset":32652,
			"target":34962
		},
		{
			"buffer":0,
			"byteLength":21768,
			"byteOffset":65304,
			"target":34962
		},
		{
			"buffer":0,
			"byteLength":30720,
			"byteOffset":87072,
			"target":34963
		}
	],
	"samplers":[
		{
			"magFilter":9729,
			"minFilter":9987
		}
	],
	"buffers":[
		{
			"byteLength":117792,
			"uri":"planet_ocean_surface_water.bin"
		}
	]
}
